0
SECTION
2
HEADER
9
$INSUNITS
70
4
9
$ACADVER
1
AC1014
9
$HANDSEED
5
FFFF
0
ENDSEC
0
SECTION
2
TABLES
0
TABLE
2
VPORT
5
8
100
AcDbSymbolTable
0
ENDTAB
0
TABLE
2
LTYPE
5
5
100
AcDbSymbolTable
0
LTYPE
5
14
100
AcDbSymbolTableRecord
100
AcDbLinetypeTableRecord
2
BYBLOCK
70
0
0
LTYPE
5
15
100
AcDbSymbolTableRecord
100
AcDbLinetypeTableRecord
2
BYLAYER
70
0
0
ENDTAB
0
TABLE
2
LAYER
5
2
100
AcDbSymbolTable
70
2
0
LAYER
5
50
100
AcDbSymbolTableRecord
100
AcDbLayerTableRecord
2
0
70
0
6
CONTINUOUS
0
ENDTAB
0
TABLE
2
STYLE
5
3
100
AcDbSymbolTable
70
1
0
STYLE
5
11
100
AcDbSymbolTableRecord
100
AcDbTextStyleTableRecord
2
STANDARD
70
0
0
ENDTAB
0
TABLE
2
VIEW
5
6
100
AcDbSymbolTable
70
0
0
ENDTAB
0
TABLE
2
UCS
5
7
100
AcDbSymbolTable
70
0
0
ENDTAB
0
TABLE
2
APPID
5
9
100
AcDbSymbolTable
70
2
0
APPID
5
12
100
AcDbSymbolTableRecord
100
AcDbRegAppTableRecord
2
ACAD
70
0
0
ENDTAB
0
TABLE
2
DIMSTYLE
5
A
100
AcDbSymbolTable
70
1
0
ENDTAB
0
TABLE
2
BLOCK_RECORD
5
1
100
AcDbSymbolTable
70
1
0
BLOCK_RECORD
5
1F
100
AcDbSymbolTableRecord
100
AcDbBlockTableRecord
2
*MODEL_SPACE
0
BLOCK_RECORD
5
1B
100
AcDbSymbolTableRecord
100
AcDbBlockTableRecord
2
*PAPER_SPACE
0
ENDTAB
0
ENDSEC
0
SECTION
2
BLOCKS
0
BLOCK
5
20
100
AcDbEntity
100
AcDbBlockBegin
2
*MODEL_SPACE
0
ENDBLK
5
21
100
AcDbEntity
100
AcDbBlockEnd
0
BLOCK
5
1C
100
AcDbEntity
100
AcDbBlockBegin
2
*PAPER_SPACE
0
ENDBLK
5
1D
100
AcDbEntity
100
AcDbBlockEnd
0
ENDSEC
0
SECTION
2
ENTITIES
0
LWPOLYLINE
5
100
100
AcDbEntity
8
0
100
AcDbPolyline
90
250
70
1
43
0.0
10
73.449299999999994
20
32.378399999999999
10
76.206400000000002
20
32.378500000000003
10
122.98000000000002
20
32.378500000000003
10
125.616
20
32.282700000000006
10
127.32600000000002
20
31.759599999999999
10
128.13499999999999
20
31.3918
10
129.72499999999999
20
30.5411
10
130.751
20
29.444600000000001
10
131.572
20
28.567900000000002
10
132.41700000000003
20
26.989999999999998
10
132.83700000000005
20
25.881699999999999
10
133.494
20
23.102699999999999
10
135.79399999999998
20
21.979099999999999
10
136.82299999999998
20
21.476700000000001
10
139.904
20
21.476600000000001
10
142.423
20
21.476600000000001
10
144.084
20
21.757100000000001
10
146.03200000000001
20
22.494100000000003
10
147.04300000000001
20
23.2179
10
148.22799999999998
20
24.066100000000002
10
149.108
20
25.294000000000004
10
149.80200000000002
20
26.261900000000004
10
150.53999999999999
20
28.212200000000003
10
150.81999999999999
20
29.872499999999999
10
150.81999999999999
20
34.602200000000003
10
150.858
20
36.4191
10
151.09899999999999
20
38.6738
10
151.25
20
39.401299999999999
10
151.50299999999999
20
40.625500000000009
10
152.48099999999999
20
43.45300000000001
10
154.33799999999999
20
43.868700000000004
10
155.61700000000002
20
41.820599999999999
10
156.209
20
40.676600000000001
10
156.93200000000002
20
38.756799999999998
10
157.315
20
37.365200000000002
10
157.54500000000002
20
36.526499999999999
10
157.892
20
34.686000000000007
10
158.26900000000001
20
32.426600000000001
10
158.61199999999999
20
30.371900000000004
10
158.95500000000001
20
28.317100000000003
10
159.27500000000003
20
26.399799999999999
10
159.447
20
25.372400000000003
10
159.642
20
24.207599999999999
10
159.98500000000001
20
22.152799999999999
10
160.358
20
20.098099999999999
10
160.73800000000003
20
18.082799999999999
10
160.47899999999998
20
16.015499999999999
10
159.85299999999998
20
14.430500000000002
10
159.13
20
13.3231
10
158.12700000000001
20
12.1995
10
156.55500000000001
20
11.145799999999999
10
155.483
20
10.7682
10
154.21600000000001
20
10.3919
10
152.88999999999999
20
10.409500000000001
10
150.178
20
10.409500000000001
10
139.904
20
10.409500000000001
10
136.82299999999998
20
10.409500000000001
10
135.79399999999998
20
10.055700000000002
10
133.22299999999998
20
9.1716899999999981
10
133.22299999999998
20
-25.1568
10
132.839
20
-26.786100000000005
10
132.41999999999999
20
-27.895400000000002
10
131.57599999999999
20
-29.475300000000004
10
130.75700000000001
20
-30.350100000000001
10
129.727
20
-31.450900000000001
10
128.374
20
-32.175800000000002
10
127.61499999999999
20
-32.582799999999999
10
125.61700000000002
20
-33.194699999999997
10
124.11900000000001
20
-33.249099999999999
10
98.854000000000013
20
-33.249099999999999
10
96.893600000000006
20
-32.918399999999998
10
95.537499999999994
20
-32.301000000000002
10
94.487500000000011
20
-31.738199999999999
10
93.332400000000021
20
-30.7898
10
92.102300000000014
20
-29.474800000000002
10
91.516099999999994
20
-28.377700000000004
10
90.975499999999997
20
-27.366
10
90.455200000000019
20
-25.154399999999999
10
90.455299999999994
20
-23.0518
10
90.455299999999994
20
-5.4059400000000002
10
88.897499999999994
20
-6.9310500000000008
10
87.900199999999998
20
-8.3780699999999992
10
87.409499999999994
20
-9.506260000000001
10
86.949299999999994
20
-10.8345
10
86.793300000000002
20
-12.3612
10
86.793200000000013
20
-14.832800000000002
10
86.793200000000013
20
-27.161300000000001
10
86.793200000000013
20
-29.370000000000005
10
87.247800000000012
20
-31.293700000000001
10
87.606300000000005
20
-32.081299999999999
10
88.238500000000002
20
-33.470100000000002
10
89.473399999999998
20
-34.788499999999999
10
90.562200000000018
20
-35.807899999999997
10
91.650000000000006
20
-36.390099999999997
10
92.667599999999993
20
-36.9345
10
94.697800000000001
20
-37.415100000000002
10
95.896799999999999
20
-37.458599999999997
10
111.82900000000001
20
-37.458599999999997
10
111.82900000000001
20
-60.037400000000005
10
111.82900000000001
20
-62.326500000000003
10
111.38200000000001
20
-64.221199999999996
10
110.334
20
-65.501100000000008
10
109.12100000000002
20
-66.635400000000004
10
107.36499999999999
20
-67.171500000000009
10
106.51299999999999
20
-67.257400000000004
10
104.97300000000001
20
-67.257400000000004
10
78.261200000000002
20
-67.257400000000004
10
76.029300000000006
20
-67.257400000000004
10
75.363200000000006
20
-67.191599999999994
10
73.936700000000002
20
-66.858100000000007
10
72.4422
20
-65.789599999999993
10
71.396299999999997
20
-64.512100000000004
10
70.947599999999994
20
-63.319100000000006
10
70.716300000000004
20
-62.330500000000001
10
70.716300000000004
20
-41.544600000000003
10
70.716300000000004
20
-38.929400000000001
10
70.577399999999997
20
-37.531999999999996
10
69.627099999999999
20
-35.7517
10
68.421899999999994
20
-34.6233
10
67.456999999999994
20
-34.108199999999997
10
66.164100000000005
20
-33.621299999999998
10
63.877900000000011
20
-33.621299999999998
10
-10.370799999999999
20
-33.621299999999998
10
-11.7194
20
-33.937800000000003
10
-12.843299999999999
20
-34.5381
10
-14.124400000000001
20
-35.589199999999998
10
-15.074800000000002
20
-37.368200000000002
10
-15.255900000000002
20
-38.446599999999997
10
-15.305200000000001
20
-38.935899999999997
10
-15.305200000000001
20
-62.321600000000004
10
-15.748200000000001
20
-64.214500000000001
10
-16.916799999999999
20
-65.638900000000007
10
-18.192399999999999
20
-66.683500000000009
10
-19.765999999999998
20
-67.162400000000005
10
-20.614699999999999
20
-67.246899999999997
10
-22.421900000000004
20
-67.246799999999993
10
-49.133700000000005
20
-67.246799999999993
10
-51.108200000000004
20
-67.246799999999993
10
-51.773899999999998
20
-67.180599999999998
10
-53.382399999999997
20
-66.804500000000004
10
-54.805900000000001
20
-65.638900000000007
10
-55.974500000000006
20
-64.214500000000001
10
-56.310000000000002
20
-62.7806
10
-56.417400000000001
20
-62.132100000000001
10
-56.417400000000001
20
3.0764900000000006
10
-58.982300000000009
20
1.0529700000000002
10
-60.009599999999999
20
0.24242800000000009
10
-61.312300000000008
20
-0.78482800000000008
10
-62.339700000000001
20
-1.5951600000000001
10
-63.517000000000003
20
-2.5239400000000001
10
-64.669300000000021
20
-3.43302
10
-65.696700000000007
20
-4.2434599999999998
10
-66.999200000000002
20
-5.2708000000000013
10
-68.026600000000002
20
-6.0811400000000004
10
-69.929000000000002
20
-7.5827100000000014
10
-70.316100000000006
20
-7.8667899999999991
10
-71.183400000000006
20
-7.9160699999999995
10
-71.735699999999994
20
-7.5522899999999993
10
-73.081000000000003
20
-5.9618699999999993
10
-74.108300000000014
20
-4.7472799999999999
10
-74.977599999999995
20
-3.7200199999999999
10
-76.235900000000001
20
-2.2318099999999998
10
-75.914800000000014
20
-1.3211600000000001
10
-74.742700000000013
20
0.46309900000000004
10
-73.992400000000004
20
1.6052500000000003
10
-73.040599999999998
20
3.0547499999999999
10
-72.365899999999996
20
4.0821399999999999
10
-71.338499999999996
20
5.6463900000000002
10
-70.663700000000006
20
6.6737700000000002
10
-69.944000000000003
20
7.7695699999999999
10
-68.961500000000001
20
9.2652900000000002
10
-68.286699999999996
20
10.292700000000002
10
-67.259299999999996
20
11.8569
10
-66.584599999999995
20
12.8843
10
-65.895300000000006
20
13.933800000000002
10
-64.882499999999993
20
15.475899999999999
10
-64.207599999999999
20
16.503299999999999
10
-63.196100000000008
20
18.043299999999999
10
-62.505500000000005
20
19.094899999999999
10
-61.830800000000004
20
20.122300000000003
10
-60.803400000000003
20
21.686499999999999
10
-60.128599999999999
20
22.713899999999999
10
-59.147500000000008
20
24.207599999999999
10
-58.426400000000001
20
25.305499999999999
10
-57.7517
20
26.332900000000002
10
-56.724299999999999
20
27.897200000000005
10
-55.9208
20
29.120600000000003
10
-55.276500000000006
20
30.459499999999998
10
-54.083399999999997
20
31.356400000000004
10
-53.211000000000013
20
31.950199999999999
10
-51.589300000000016
20
32.388800000000003
10
55.843699999999998
20
32.388800000000003
10
57.430599999999998
20
31.786999999999999
10
58.427199999999999
20
31.100899999999999
10
59.370200000000004
20
30.138800000000003
10
60.255800000000008
20
28.461400000000001
10
60.440000000000005
20
26.636600000000001
10
60.034600000000005
20
24.207599999999999
10
59.691900000000004
20
22.152799999999999
10
59.348999999999997
20
20.098099999999999
10
59.006300000000003
20
18.043299999999999
10
58.787900000000008
20
16.7346
10
58.616700000000002
20
15.7072
10
58.169800000000009
20
13.031600000000001
10
57.997599999999998
20
11.8102
10
58.422899999999998
20
10.103899999999999
10
58.928100000000008
20
9.1493399999999987
10
59.802500000000009
20
7.9505800000000004
10
61.414100000000005
20
6.9513800000000003
10
62.583400000000005
20
6.632810000000001
10
63.332200000000007
20
6.5410600000000008
10
65.932599999999994
20
6.5410199999999996
10
82.370700000000014
20
6.5410199999999996
10
85.106000000000023
20
6.5409800000000011
10
85.854500000000002
20
6.6064800000000012
10
86.937600000000003
20
6.8942000000000005
10
88.658699999999996
20
7.8113100000000015
10
90.733000000000004
20
10.839399999999999
10
86.880600000000001
20
10.399200000000002
10
84.425399999999996
20
10.399200000000002
10
72.096900000000005
20
10.399200000000002
10
69.691800000000001
20
10.399200000000002
10
68.471100000000007
20
10.696400000000001
10
67.586399999999998
20
11.0076
10
65.907799999999995
20
11.9018
10
64.959000000000003
20
12.966800000000001
10
64.132099999999994
20
13.895
10
63.298200000000008
20
16.015000000000001
10
63.042000000000009
20
18.082799999999999
10
63.2883
20
19.446899999999999
10
63.739300000000007
20
22.152799999999999
10
64.081699999999998
20
24.207599999999999
10
64.424099999999996
20
26.2624
10
64.750399999999999
20
28.218800000000002
10
64.921599999999998
20
29.246200000000005
10
65.109200000000001
20
30.371900000000004
10
65.451899999999995
20
32.426600000000001
10
65.842399999999998
20
34.770200000000003
10
66.1845
20
36.584800000000001
10
66.645700000000005
20
38.258600000000001
10
66.978200000000001
20
39.2879
10
67.522199999999998
20
40.732600000000005
10
68.521999999999991
20
42.6616
10
70.120400000000004
20
43.991500000000002
10
71.548999999999992
20
42.647199999999998
10
72.2273
20
40.693600000000004
10
72.631
20
38.742400000000004
10
72.872
20
36.482399999999998
10
72.909499999999994
20
34.657299999999999
10
72.909599999999998
20
32.309100000000001
0
ENDSEC
0
SECTION
2
OBJECTS
0
DICTIONARY
5
C
100
AcDbDictionary
3
ACAD_GROUP
350
D
3
ACAD_MLINESTYLE
350
17
0
DICTIONARY
5
D
100
AcDbDictionary
0
DICTIONARY
5
1A
330
C
100
AcDbDictionary
0
DICTIONARY
5
17
100
AcDbDictionary
0
ENDSEC
0
EOF
