solid OpenSCAD_Model
  facet normal -0.991445 0 0.130528
    outer loop
      vertex 6.98272 75.4945 25
      vertex 6.99976 80.4945 25.1294
      vertex 6.98272 80.4945 25
    endloop
  endfacet
  facet normal -0.991445 0 0.130528
    outer loop
      vertex 6.99976 80.4945 25.1294
      vertex 6.98272 75.4945 25
      vertex 6.99976 75.4945 25.1294
    endloop
  endfacet
  facet normal -0.923881 0 0.38268
    outer loop
      vertex 6.99976 75.4945 25.1294
      vertex 7.04971 80.4945 25.25
      vertex 6.99976 80.4945 25.1294
    endloop
  endfacet
  facet normal -0.923881 0 0.38268
    outer loop
      vertex 7.04971 80.4945 25.25
      vertex 6.99976 75.4945 25.1294
      vertex 7.04971 75.4945 25.25
    endloop
  endfacet
  facet normal -0.793351 0 0.608764
    outer loop
      vertex 7.04971 75.4945 25.25
      vertex 7.12917 80.4945 25.3536
      vertex 7.04971 80.4945 25.25
    endloop
  endfacet
  facet normal -0.793351 0 0.608764
    outer loop
      vertex 7.12917 80.4945 25.3536
      vertex 7.04971 75.4945 25.25
      vertex 7.12917 75.4945 25.3536
    endloop
  endfacet
  facet normal -0.608758 0 0.793356
    outer loop
      vertex 7.12917 80.4945 25.3536
      vertex 7.23272 75.4945 25.433
      vertex 7.23272 80.4945 25.433
    endloop
  endfacet
  facet normal -0.608758 0 0.793356
    outer loop
      vertex 7.23272 75.4945 25.433
      vertex 7.12917 80.4945 25.3536
      vertex 7.12917 75.4945 25.3536
    endloop
  endfacet
  facet normal -0.382693 0 0.923876
    outer loop
      vertex 7.23272 80.4945 25.433
      vertex 7.35331 75.4945 25.483
      vertex 7.35331 80.4945 25.483
    endloop
  endfacet
  facet normal -0.382693 0 0.923876
    outer loop
      vertex 7.35331 75.4945 25.483
      vertex 7.23272 80.4945 25.433
      vertex 7.23272 75.4945 25.433
    endloop
  endfacet
  facet normal -0.130521 0 0.991446
    outer loop
      vertex 7.35331 80.4945 25.483
      vertex 7.48272 75.4945 25.5
      vertex 7.48272 80.4945 25.5
    endloop
  endfacet
  facet normal -0.130521 0 0.991446
    outer loop
      vertex 7.48272 75.4945 25.5
      vertex 7.35331 80.4945 25.483
      vertex 7.35331 75.4945 25.483
    endloop
  endfacet
  facet normal -1 0 0
    outer loop
      vertex 6.98272 75.4945 23.2
      vertex 6.98272 80.4945 25
      vertex 6.98272 80.4945 23.2
    endloop
  endfacet
  facet normal -1 -0 0
    outer loop
      vertex 6.98272 80.4945 25
      vertex 6.98272 75.4945 23.2
      vertex 6.98272 75.4945 25
    endloop
  endfacet
  facet normal 0 1 0
    outer loop
      vertex 14.9827 80.4945 25
      vertex 14.4827 80.4945 25.5
      vertex 14.6121 80.4945 25.483
    endloop
  endfacet
  facet normal 0 1 0
    outer loop
      vertex 14.4827 80.4945 25.5
      vertex 14.9827 80.4945 25
      vertex 13.4827 80.4945 25.5
    endloop
  endfacet
  facet normal 0 1 0
    outer loop
      vertex 14.9827 80.4945 25
      vertex 14.6121 80.4945 25.483
      vertex 14.7327 80.4945 25.433
    endloop
  endfacet
  facet normal 0 1 0
    outer loop
      vertex 12.9827 80.4945 25
      vertex 13.4827 80.4945 25.5
      vertex 14.9827 80.4945 25
    endloop
  endfacet
  facet normal 0 1 0
    outer loop
      vertex 14.9827 80.4945 25
      vertex 14.7327 80.4945 25.433
      vertex 14.8363 80.4945 25.3536
    endloop
  endfacet
  facet normal 0 1 0
    outer loop
      vertex 13.4827 80.4945 25.5
      vertex 12.9827 80.4945 25
      vertex 13.3533 80.4945 25.483
    endloop
  endfacet
  facet normal 0 1 0
    outer loop
      vertex 14.9827 80.4945 25
      vertex 14.8363 80.4945 25.3536
      vertex 14.9157 80.4945 25.25
    endloop
  endfacet
  facet normal 0 1 0
    outer loop
      vertex 13.3533 80.4945 25.483
      vertex 12.9827 80.4945 25
      vertex 13.2327 80.4945 25.433
    endloop
  endfacet
  facet normal 0 1 0
    outer loop
      vertex 14.9827 80.4945 25
      vertex 14.9157 80.4945 25.25
      vertex 14.9657 80.4945 25.1294
    endloop
  endfacet
  facet normal 0 1 0
    outer loop
      vertex 13.2327 80.4945 25.433
      vertex 12.9827 80.4945 25
      vertex 13.1292 80.4945 25.3536
    endloop
  endfacet
  facet normal 0 1 0
    outer loop
      vertex 13.1292 80.4945 25.3536
      vertex 12.9827 80.4945 25
      vertex 13.0497 80.4945 25.25
    endloop
  endfacet
  facet normal 0 1 0
    outer loop
      vertex 13.0497 80.4945 25.25
      vertex 12.9827 80.4945 25
      vertex 12.9998 80.4945 25.1294
    endloop
  endfacet
  facet normal 0 1 0
    outer loop
      vertex 14.9827 80.4945 25
      vertex 12.9827 80.4945 24
      vertex 12.9827 80.4945 25
    endloop
  endfacet
  facet normal 0 1 0
    outer loop
      vertex 14.9827 80.4945 23.2
      vertex 11.9827 80.4945 24
      vertex 12.9827 80.4945 24
    endloop
  endfacet
  facet normal 0 1 0
    outer loop
      vertex 11.9827 80.4945 24
      vertex 17.2827 80.4945 20.9
      vertex 9.98272 80.4945 24
    endloop
  endfacet
  facet normal 0 1 0
    outer loop
      vertex 11.9827 80.4945 24
      vertex 14.9827 80.4945 23.2
      vertex 17.2827 80.4945 20.9
    endloop
  endfacet
  facet normal 0 1 -0
    outer loop
      vertex 14.9827 80.4945 23.2
      vertex 12.9827 80.4945 24
      vertex 14.9827 80.4945 25
    endloop
  endfacet
  facet normal 0 1 0
    outer loop
      vertex 11.9827 80.4945 25
      vertex 11.4827 80.4945 25.5
      vertex 11.6121 80.4945 25.483
    endloop
  endfacet
  facet normal 0 1 0
    outer loop
      vertex 11.4827 80.4945 25.5
      vertex 11.9827 80.4945 25
      vertex 10.4827 80.4945 25.5
    endloop
  endfacet
  facet normal 0 1 0
    outer loop
      vertex 11.9827 80.4945 25
      vertex 11.6121 80.4945 25.483
      vertex 11.7327 80.4945 25.433
    endloop
  endfacet
  facet normal 0 1 0
    outer loop
      vertex 9.98272 80.4945 25
      vertex 10.4827 80.4945 25.5
      vertex 11.9827 80.4945 25
    endloop
  endfacet
  facet normal 0 1 0
    outer loop
      vertex 11.9827 80.4945 25
      vertex 11.7327 80.4945 25.433
      vertex 11.8363 80.4945 25.3536
    endloop
  endfacet
  facet normal 0 1 0
    outer loop
      vertex 10.4827 80.4945 25.5
      vertex 9.98272 80.4945 25
      vertex 10.3533 80.4945 25.483
    endloop
  endfacet
  facet normal 0 1 0
    outer loop
      vertex 11.9827 80.4945 25
      vertex 11.8363 80.4945 25.3536
      vertex 11.9157 80.4945 25.25
    endloop
  endfacet
  facet normal 0 1 0
    outer loop
      vertex 10.3533 80.4945 25.483
      vertex 9.98272 80.4945 25
      vertex 10.2327 80.4945 25.433
    endloop
  endfacet
  facet normal 0 1 0
    outer loop
      vertex 11.9827 80.4945 25
      vertex 11.9157 80.4945 25.25
      vertex 11.9657 80.4945 25.1294
    endloop
  endfacet
  facet normal 0 1 0
    outer loop
      vertex 10.2327 80.4945 25.433
      vertex 9.98272 80.4945 25
      vertex 10.1292 80.4945 25.3536
    endloop
  endfacet
  facet normal 0 1 0
    outer loop
      vertex 10.1292 80.4945 25.3536
      vertex 9.98272 80.4945 25
      vertex 10.0497 80.4945 25.25
    endloop
  endfacet
  facet normal 0 1 0
    outer loop
      vertex 10.0497 80.4945 25.25
      vertex 9.98272 80.4945 25
      vertex 9.99976 80.4945 25.1294
    endloop
  endfacet
  facet normal 0 1 -0
    outer loop
      vertex 11.9827 80.4945 24
      vertex 9.98272 80.4945 25
      vertex 11.9827 80.4945 25
    endloop
  endfacet
  facet normal 0 1 0
    outer loop
      vertex 9.98272 80.4945 25
      vertex 11.9827 80.4945 24
      vertex 9.98272 80.4945 24
    endloop
  endfacet
  facet normal 0 1 0
    outer loop
      vertex 8.98272 80.4945 25
      vertex 8.48272 80.4945 25.5
      vertex 8.61213 80.4945 25.483
    endloop
  endfacet
  facet normal 0 1 0
    outer loop
      vertex 8.48272 80.4945 25.5
      vertex 8.98272 80.4945 25
      vertex 7.48272 80.4945 25.5
    endloop
  endfacet
  facet normal 0 1 0
    outer loop
      vertex 8.98272 80.4945 25
      vertex 8.61213 80.4945 25.483
      vertex 8.73272 80.4945 25.433
    endloop
  endfacet
  facet normal 0 1 0
    outer loop
      vertex 6.98272 80.4945 25
      vertex 7.48272 80.4945 25.5
      vertex 8.98272 80.4945 25
    endloop
  endfacet
  facet normal 0 1 0
    outer loop
      vertex 8.98272 80.4945 25
      vertex 8.73272 80.4945 25.433
      vertex 8.83628 80.4945 25.3536
    endloop
  endfacet
  facet normal 0 1 0
    outer loop
      vertex 7.48272 80.4945 25.5
      vertex 6.98272 80.4945 25
      vertex 7.35331 80.4945 25.483
    endloop
  endfacet
  facet normal 0 1 0
    outer loop
      vertex 8.98272 80.4945 25
      vertex 8.83628 80.4945 25.3536
      vertex 8.91574 80.4945 25.25
    endloop
  endfacet
  facet normal 0 1 0
    outer loop
      vertex 7.35331 80.4945 25.483
      vertex 6.98272 80.4945 25
      vertex 7.23272 80.4945 25.433
    endloop
  endfacet
  facet normal 0 1 0
    outer loop
      vertex 8.98272 80.4945 25
      vertex 8.91574 80.4945 25.25
      vertex 8.96569 80.4945 25.1294
    endloop
  endfacet
  facet normal 0 1 0
    outer loop
      vertex 7.23272 80.4945 25.433
      vertex 6.98272 80.4945 25
      vertex 7.12917 80.4945 25.3536
    endloop
  endfacet
  facet normal 0 1 0
    outer loop
      vertex 7.12917 80.4945 25.3536
      vertex 6.98272 80.4945 25
      vertex 7.04971 80.4945 25.25
    endloop
  endfacet
  facet normal 0 1 0
    outer loop
      vertex 7.04971 80.4945 25.25
      vertex 6.98272 80.4945 25
      vertex 6.99976 80.4945 25.1294
    endloop
  endfacet
  facet normal 0 1 -0
    outer loop
      vertex 8.98272 80.4945 24
      vertex 6.98272 80.4945 25
      vertex 8.98272 80.4945 25
    endloop
  endfacet
  facet normal 0 1 0
    outer loop
      vertex 8.98272 80.4945 24
      vertex 6.98272 80.4945 23.2
      vertex 6.98272 80.4945 25
    endloop
  endfacet
  facet normal 0 1 0
    outer loop
      vertex 4.68272 80.4945 20.9
      vertex 9.98272 80.4945 24
      vertex 17.2827 80.4945 20.9
    endloop
  endfacet
  facet normal -0 1 0
    outer loop
      vertex 6.98272 80.4945 23.2
      vertex 9.98272 80.4945 24
      vertex 4.68272 80.4945 20.9
    endloop
  endfacet
  facet normal 0 1 0
    outer loop
      vertex 9.98272 80.4945 24
      vertex 6.98272 80.4945 23.2
      vertex 8.98272 80.4945 24
    endloop
  endfacet
  facet normal 0.130521 0 0.991446
    outer loop
      vertex 14.4827 80.4945 25.5
      vertex 14.6121 75.4945 25.483
      vertex 14.6121 80.4945 25.483
    endloop
  endfacet
  facet normal 0.130521 0 0.991446
    outer loop
      vertex 14.6121 75.4945 25.483
      vertex 14.4827 80.4945 25.5
      vertex 14.4827 75.4945 25.5
    endloop
  endfacet
  facet normal 0.382693 0 0.923876
    outer loop
      vertex 14.6121 80.4945 25.483
      vertex 14.7327 75.4945 25.433
      vertex 14.7327 80.4945 25.433
    endloop
  endfacet
  facet normal 0.382693 0 0.923876
    outer loop
      vertex 14.7327 75.4945 25.433
      vertex 14.6121 80.4945 25.483
      vertex 14.6121 75.4945 25.483
    endloop
  endfacet
  facet normal 0.608755 0 0.793358
    outer loop
      vertex 14.7327 80.4945 25.433
      vertex 14.8363 75.4945 25.3536
      vertex 14.8363 80.4945 25.3536
    endloop
  endfacet
  facet normal 0.608755 0 0.793358
    outer loop
      vertex 14.8363 75.4945 25.3536
      vertex 14.7327 80.4945 25.433
      vertex 14.7327 75.4945 25.433
    endloop
  endfacet
  facet normal 0.793355 -0 0.608759
    outer loop
      vertex 14.8363 75.4945 25.3536
      vertex 14.9157 80.4945 25.25
      vertex 14.8363 80.4945 25.3536
    endloop
  endfacet
  facet normal 0.793355 0 0.608759
    outer loop
      vertex 14.9157 80.4945 25.25
      vertex 14.8363 75.4945 25.3536
      vertex 14.9157 75.4945 25.25
    endloop
  endfacet
  facet normal 0.923878 -0 0.382687
    outer loop
      vertex 14.9157 75.4945 25.25
      vertex 14.9657 80.4945 25.1294
      vertex 14.9157 80.4945 25.25
    endloop
  endfacet
  facet normal 0.923878 0 0.382687
    outer loop
      vertex 14.9657 80.4945 25.1294
      vertex 14.9157 75.4945 25.25
      vertex 14.9657 75.4945 25.1294
    endloop
  endfacet
  facet normal 0.991446 -0 0.130521
    outer loop
      vertex 14.9657 75.4945 25.1294
      vertex 14.9827 80.4945 25
      vertex 14.9657 80.4945 25.1294
    endloop
  endfacet
  facet normal 0.991446 0 0.130521
    outer loop
      vertex 14.9827 80.4945 25
      vertex 14.9657 75.4945 25.1294
      vertex 14.9827 75.4945 25
    endloop
  endfacet
  facet normal -0 0 1
    outer loop
      vertex 13.4827 80.4945 25.5
      vertex 14.4827 75.4945 25.5
      vertex 14.4827 80.4945 25.5
    endloop
  endfacet
  facet normal 0 0 1
    outer loop
      vertex 14.4827 75.4945 25.5
      vertex 13.4827 80.4945 25.5
      vertex 13.4827 75.4945 25.5
    endloop
  endfacet
  facet normal -0.991445 0 0.130528
    outer loop
      vertex 9.98272 75.4945 25
      vertex 9.99976 80.4945 25.1294
      vertex 9.98272 80.4945 25
    endloop
  endfacet
  facet normal -0.991445 0 0.130528
    outer loop
      vertex 9.99976 80.4945 25.1294
      vertex 9.98272 75.4945 25
      vertex 9.99976 75.4945 25.1294
    endloop
  endfacet
  facet normal -0.923878 0 0.382687
    outer loop
      vertex 9.99976 75.4945 25.1294
      vertex 10.0497 80.4945 25.25
      vertex 9.99976 80.4945 25.1294
    endloop
  endfacet
  facet normal -0.923878 0 0.382687
    outer loop
      vertex 10.0497 80.4945 25.25
      vertex 9.99976 75.4945 25.1294
      vertex 10.0497 75.4945 25.25
    endloop
  endfacet
  facet normal -0.793355 0 0.608759
    outer loop
      vertex 10.0497 75.4945 25.25
      vertex 10.1292 80.4945 25.3536
      vertex 10.0497 80.4945 25.25
    endloop
  endfacet
  facet normal -0.793355 0 0.608759
    outer loop
      vertex 10.1292 80.4945 25.3536
      vertex 10.0497 75.4945 25.25
      vertex 10.1292 75.4945 25.3536
    endloop
  endfacet
  facet normal -0.608758 0 0.793356
    outer loop
      vertex 10.1292 80.4945 25.3536
      vertex 10.2327 75.4945 25.433
      vertex 10.2327 80.4945 25.433
    endloop
  endfacet
  facet normal -0.608758 0 0.793356
    outer loop
      vertex 10.2327 75.4945 25.433
      vertex 10.1292 80.4945 25.3536
      vertex 10.1292 75.4945 25.3536
    endloop
  endfacet
  facet normal -0.38269 0 0.923877
    outer loop
      vertex 10.2327 80.4945 25.433
      vertex 10.3533 75.4945 25.483
      vertex 10.3533 80.4945 25.483
    endloop
  endfacet
  facet normal -0.38269 0 0.923877
    outer loop
      vertex 10.3533 75.4945 25.483
      vertex 10.2327 80.4945 25.433
      vertex 10.2327 75.4945 25.433
    endloop
  endfacet
  facet normal -0.130522 0 0.991445
    outer loop
      vertex 10.3533 80.4945 25.483
      vertex 10.4827 75.4945 25.5
      vertex 10.4827 80.4945 25.5
    endloop
  endfacet
  facet normal -0.130522 0 0.991445
    outer loop
      vertex 10.4827 75.4945 25.5
      vertex 10.3533 80.4945 25.483
      vertex 10.3533 75.4945 25.483
    endloop
  endfacet
  facet normal -1 0 0
    outer loop
      vertex 9.98272 75.4945 24
      vertex 9.98272 80.4945 25
      vertex 9.98272 80.4945 24
    endloop
  endfacet
  facet normal -1 -0 0
    outer loop
      vertex 9.98272 80.4945 25
      vertex 9.98272 75.4945 24
      vertex 9.98272 75.4945 25
    endloop
  endfacet
  facet normal 0.130521 0 0.991446
    outer loop
      vertex 8.48272 80.4945 25.5
      vertex 8.61213 75.4945 25.483
      vertex 8.61213 80.4945 25.483
    endloop
  endfacet
  facet normal 0.130521 0 0.991446
    outer loop
      vertex 8.61213 75.4945 25.483
      vertex 8.48272 80.4945 25.5
      vertex 8.48272 75.4945 25.5
    endloop
  endfacet
  facet normal 0.382693 0 0.923876
    outer loop
      vertex 8.61213 80.4945 25.483
      vertex 8.73272 75.4945 25.433
      vertex 8.73272 80.4945 25.433
    endloop
  endfacet
  facet normal 0.382693 0 0.923876
    outer loop
      vertex 8.73272 75.4945 25.433
      vertex 8.61213 80.4945 25.483
      vertex 8.61213 75.4945 25.483
    endloop
  endfacet
  facet normal 0.608755 0 0.793358
    outer loop
      vertex 8.73272 80.4945 25.433
      vertex 8.83628 75.4945 25.3536
      vertex 8.83628 80.4945 25.3536
    endloop
  endfacet
  facet normal 0.608755 0 0.793358
    outer loop
      vertex 8.83628 75.4945 25.3536
      vertex 8.73272 80.4945 25.433
      vertex 8.73272 75.4945 25.433
    endloop
  endfacet
  facet normal 0.793355 -0 0.608759
    outer loop
      vertex 8.83628 75.4945 25.3536
      vertex 8.91574 80.4945 25.25
      vertex 8.83628 80.4945 25.3536
    endloop
  endfacet
  facet normal 0.793355 0 0.608759
    outer loop
      vertex 8.91574 80.4945 25.25
      vertex 8.83628 75.4945 25.3536
      vertex 8.91574 75.4945 25.25
    endloop
  endfacet
  facet normal 0.923878 -0 0.382687
    outer loop
      vertex 8.91574 75.4945 25.25
      vertex 8.96569 80.4945 25.1294
      vertex 8.91574 80.4945 25.25
    endloop
  endfacet
  facet normal 0.923878 0 0.382687
    outer loop
      vertex 8.96569 80.4945 25.1294
      vertex 8.91574 75.4945 25.25
      vertex 8.96569 75.4945 25.1294
    endloop
  endfacet
  facet normal 0.991446 -0 0.130521
    outer loop
      vertex 8.96569 75.4945 25.1294
      vertex 8.98272 80.4945 25
      vertex 8.96569 80.4945 25.1294
    endloop
  endfacet
  facet normal 0.991446 0 0.130521
    outer loop
      vertex 8.98272 80.4945 25
      vertex 8.96569 75.4945 25.1294
      vertex 8.98272 75.4945 25
    endloop
  endfacet
  facet normal -0 0 1
    outer loop
      vertex 7.48272 80.4945 25.5
      vertex 8.48272 75.4945 25.5
      vertex 8.48272 80.4945 25.5
    endloop
  endfacet
  facet normal 0 0 1
    outer loop
      vertex 8.48272 75.4945 25.5
      vertex 7.48272 80.4945 25.5
      vertex 7.48272 75.4945 25.5
    endloop
  endfacet
  facet normal 0.130521 0 0.991446
    outer loop
      vertex 11.4827 80.4945 25.5
      vertex 11.6121 75.4945 25.483
      vertex 11.6121 80.4945 25.483
    endloop
  endfacet
  facet normal 0.130521 0 0.991446
    outer loop
      vertex 11.6121 75.4945 25.483
      vertex 11.4827 80.4945 25.5
      vertex 11.4827 75.4945 25.5
    endloop
  endfacet
  facet normal 0.382693 0 0.923876
    outer loop
      vertex 11.6121 80.4945 25.483
      vertex 11.7327 75.4945 25.433
      vertex 11.7327 80.4945 25.433
    endloop
  endfacet
  facet normal 0.382693 0 0.923876
    outer loop
      vertex 11.7327 75.4945 25.433
      vertex 11.6121 80.4945 25.483
      vertex 11.6121 75.4945 25.483
    endloop
  endfacet
  facet normal 0.608755 0 0.793358
    outer loop
      vertex 11.7327 80.4945 25.433
      vertex 11.8363 75.4945 25.3536
      vertex 11.8363 80.4945 25.3536
    endloop
  endfacet
  facet normal 0.608755 0 0.793358
    outer loop
      vertex 11.8363 75.4945 25.3536
      vertex 11.7327 80.4945 25.433
      vertex 11.7327 75.4945 25.433
    endloop
  endfacet
  facet normal 0.793355 -0 0.608759
    outer loop
      vertex 11.8363 75.4945 25.3536
      vertex 11.9157 80.4945 25.25
      vertex 11.8363 80.4945 25.3536
    endloop
  endfacet
  facet normal 0.793355 0 0.608759
    outer loop
      vertex 11.9157 80.4945 25.25
      vertex 11.8363 75.4945 25.3536
      vertex 11.9157 75.4945 25.25
    endloop
  endfacet
  facet normal 0.923878 -0 0.382687
    outer loop
      vertex 11.9157 75.4945 25.25
      vertex 11.9657 80.4945 25.1294
      vertex 11.9157 80.4945 25.25
    endloop
  endfacet
  facet normal 0.923878 0 0.382687
    outer loop
      vertex 11.9657 80.4945 25.1294
      vertex 11.9157 75.4945 25.25
      vertex 11.9657 75.4945 25.1294
    endloop
  endfacet
  facet normal 0.991446 -0 0.130521
    outer loop
      vertex 11.9657 75.4945 25.1294
      vertex 11.9827 80.4945 25
      vertex 11.9657 80.4945 25.1294
    endloop
  endfacet
  facet normal 0.991446 0 0.130521
    outer loop
      vertex 11.9827 80.4945 25
      vertex 11.9657 75.4945 25.1294
      vertex 11.9827 75.4945 25
    endloop
  endfacet
  facet normal -0 0 1
    outer loop
      vertex 10.4827 80.4945 25.5
      vertex 11.4827 75.4945 25.5
      vertex 11.4827 80.4945 25.5
    endloop
  endfacet
  facet normal 0 0 1
    outer loop
      vertex 11.4827 75.4945 25.5
      vertex 10.4827 80.4945 25.5
      vertex 10.4827 75.4945 25.5
    endloop
  endfacet
  facet normal -0.991445 0 0.130528
    outer loop
      vertex 12.9827 75.4945 25
      vertex 12.9998 80.4945 25.1294
      vertex 12.9827 80.4945 25
    endloop
  endfacet
  facet normal -0.991445 0 0.130528
    outer loop
      vertex 12.9998 80.4945 25.1294
      vertex 12.9827 75.4945 25
      vertex 12.9998 75.4945 25.1294
    endloop
  endfacet
  facet normal -0.923878 0 0.382687
    outer loop
      vertex 12.9998 75.4945 25.1294
      vertex 13.0497 80.4945 25.25
      vertex 12.9998 80.4945 25.1294
    endloop
  endfacet
  facet normal -0.923878 0 0.382687
    outer loop
      vertex 13.0497 80.4945 25.25
      vertex 12.9998 75.4945 25.1294
      vertex 13.0497 75.4945 25.25
    endloop
  endfacet
  facet normal -0.793355 0 0.608759
    outer loop
      vertex 13.0497 75.4945 25.25
      vertex 13.1292 80.4945 25.3536
      vertex 13.0497 80.4945 25.25
    endloop
  endfacet
  facet normal -0.793355 0 0.608759
    outer loop
      vertex 13.1292 80.4945 25.3536
      vertex 13.0497 75.4945 25.25
      vertex 13.1292 75.4945 25.3536
    endloop
  endfacet
  facet normal -0.608758 0 0.793356
    outer loop
      vertex 13.1292 80.4945 25.3536
      vertex 13.2327 75.4945 25.433
      vertex 13.2327 80.4945 25.433
    endloop
  endfacet
  facet normal -0.608758 0 0.793356
    outer loop
      vertex 13.2327 75.4945 25.433
      vertex 13.1292 80.4945 25.3536
      vertex 13.1292 75.4945 25.3536
    endloop
  endfacet
  facet normal -0.38269 0 0.923877
    outer loop
      vertex 13.2327 80.4945 25.433
      vertex 13.3533 75.4945 25.483
      vertex 13.3533 80.4945 25.483
    endloop
  endfacet
  facet normal -0.38269 0 0.923877
    outer loop
      vertex 13.3533 75.4945 25.483
      vertex 13.2327 80.4945 25.433
      vertex 13.2327 75.4945 25.433
    endloop
  endfacet
  facet normal -0.130522 0 0.991445
    outer loop
      vertex 13.3533 80.4945 25.483
      vertex 13.4827 75.4945 25.5
      vertex 13.4827 80.4945 25.5
    endloop
  endfacet
  facet normal -0.130522 0 0.991445
    outer loop
      vertex 13.4827 75.4945 25.5
      vertex 13.3533 80.4945 25.483
      vertex 13.3533 75.4945 25.483
    endloop
  endfacet
  facet normal -1 0 0
    outer loop
      vertex 12.9827 75.4945 24
      vertex 12.9827 80.4945 25
      vertex 12.9827 80.4945 24
    endloop
  endfacet
  facet normal -1 -0 0
    outer loop
      vertex 12.9827 80.4945 25
      vertex 12.9827 75.4945 24
      vertex 12.9827 75.4945 25
    endloop
  endfacet
  facet normal 1 -0 0
    outer loop
      vertex 11.9827 75.4945 25
      vertex 11.9827 80.4945 24
      vertex 11.9827 80.4945 25
    endloop
  endfacet
  facet normal 1 0 0
    outer loop
      vertex 11.9827 80.4945 24
      vertex 11.9827 75.4945 25
      vertex 11.9827 75.4945 24
    endloop
  endfacet
  facet normal -0 0 1
    outer loop
      vertex 11.9827 80.4945 24
      vertex 12.9827 75.4945 24
      vertex 12.9827 80.4945 24
    endloop
  endfacet
  facet normal 0 0 1
    outer loop
      vertex 12.9827 75.4945 24
      vertex 11.9827 80.4945 24
      vertex 11.9827 75.4945 24
    endloop
  endfacet
  facet normal 1 -0 0
    outer loop
      vertex 8.98272 75.4945 25
      vertex 8.98272 80.4945 24
      vertex 8.98272 80.4945 25
    endloop
  endfacet
  facet normal 1 0 0
    outer loop
      vertex 8.98272 80.4945 24
      vertex 8.98272 75.4945 25
      vertex 8.98272 75.4945 24
    endloop
  endfacet
  facet normal -0 0 1
    outer loop
      vertex 8.98272 80.4945 24
      vertex 9.98272 75.4945 24
      vertex 9.98272 80.4945 24
    endloop
  endfacet
  facet normal 0 0 1
    outer loop
      vertex 9.98272 75.4945 24
      vertex 8.98272 80.4945 24
      vertex 8.98272 75.4945 24
    endloop
  endfacet
  facet normal 0 -0.707107 -0.707106
    outer loop
      vertex 4.68272 75.4945 16.5
      vertex 18.8827 73.8945 18.1
      vertex 3.08272 73.8945 18.1
    endloop
  endfacet
  facet normal 0 -0.707107 -0.707106
    outer loop
      vertex 18.8827 73.8945 18.1
      vertex 4.68272 75.4945 16.5
      vertex 17.2827 75.4945 16.5
    endloop
  endfacet
  facet normal 0 0.707106 -0.707108
    outer loop
      vertex 4.68272 80.4945 16.5
      vertex 18.8827 82.0945 18.1
      vertex 17.2827 80.4945 16.5
    endloop
  endfacet
  facet normal 0 0.707106 -0.707108
    outer loop
      vertex 18.8827 82.0945 18.1
      vertex 4.68272 80.4945 16.5
      vertex 3.08272 82.0945 18.1
    endloop
  endfacet
  facet normal 0 0.707106 0.707108
    outer loop
      vertex 18.8827 82.0945 19.3
      vertex 4.68272 80.4945 20.9
      vertex 17.2827 80.4945 20.9
    endloop
  endfacet
  facet normal 0 0.707106 0.707108
    outer loop
      vertex 4.68272 80.4945 20.9
      vertex 18.8827 82.0945 19.3
      vertex 3.08272 82.0945 19.3
    endloop
  endfacet
  facet normal 0 -0.707107 0.707106
    outer loop
      vertex 3.08272 73.8945 19.3
      vertex 17.2827 75.4945 20.9
      vertex 4.68272 75.4945 20.9
    endloop
  endfacet
  facet normal 0 -0.707107 0.707106
    outer loop
      vertex 17.2827 75.4945 20.9
      vertex 3.08272 73.8945 19.3
      vertex 18.8827 73.8945 19.3
    endloop
  endfacet
  facet normal 0.707107 0 -0.707107
    outer loop
      vertex 17.2827 80.4945 16.5
      vertex 17.2827 75.4945 16.5
      vertex 14.9827 80.4945 14.2
    endloop
  endfacet
  facet normal 0.707107 0 -0.707107
    outer loop
      vertex 18.8827 82.0945 18.1
      vertex 17.2827 75.4945 16.5
      vertex 17.2827 80.4945 16.5
    endloop
  endfacet
  facet normal 0.707107 0 -0.707107
    outer loop
      vertex 17.2827 75.4945 16.5
      vertex 18.8827 82.0945 18.1
      vertex 18.8827 73.8945 18.1
    endloop
  endfacet
  facet normal 0.707107 0 -0.707107
    outer loop
      vertex 14.9827 80.4945 14.2
      vertex 17.2827 75.4945 16.5
      vertex 14.9827 75.4945 14.2
    endloop
  endfacet
  facet normal -0.707107 0 -0.707107
    outer loop
      vertex 6.98272 75.4945 14.2
      vertex 4.68272 80.4945 16.5
      vertex 6.98272 80.4945 14.2
    endloop
  endfacet
  facet normal -0.707107 -0 -0.707107
    outer loop
      vertex 4.68272 80.4945 16.5
      vertex 6.98272 75.4945 14.2
      vertex 4.68272 75.4945 16.5
    endloop
  endfacet
  facet normal -0.707107 0 -0.707107
    outer loop
      vertex 4.68272 75.4945 16.5
      vertex 3.08272 82.0945 18.1
      vertex 4.68272 80.4945 16.5
    endloop
  endfacet
  facet normal -0.707107 -0 -0.707107
    outer loop
      vertex 3.08272 82.0945 18.1
      vertex 4.68272 75.4945 16.5
      vertex 3.08272 73.8945 18.1
    endloop
  endfacet
  facet normal 0.707107 -0 0.707107
    outer loop
      vertex 14.9827 75.4945 23.2
      vertex 17.2827 80.4945 20.9
      vertex 14.9827 80.4945 23.2
    endloop
  endfacet
  facet normal 0.707107 0 0.707107
    outer loop
      vertex 17.2827 80.4945 20.9
      vertex 14.9827 75.4945 23.2
      vertex 17.2827 75.4945 20.9
    endloop
  endfacet
  facet normal 0.707107 -0 0.707107
    outer loop
      vertex 17.2827 75.4945 20.9
      vertex 18.8827 82.0945 19.3
      vertex 17.2827 80.4945 20.9
    endloop
  endfacet
  facet normal 0.707107 0 0.707107
    outer loop
      vertex 18.8827 82.0945 19.3
      vertex 17.2827 75.4945 20.9
      vertex 18.8827 73.8945 19.3
    endloop
  endfacet
  facet normal -0.707107 0 0.707107
    outer loop
      vertex 4.68272 75.4945 20.9
      vertex 6.98272 80.4945 23.2
      vertex 4.68272 80.4945 20.9
    endloop
  endfacet
  facet normal -0.707107 0 0.707107
    outer loop
      vertex 6.98272 80.4945 23.2
      vertex 4.68272 75.4945 20.9
      vertex 6.98272 75.4945 23.2
    endloop
  endfacet
  facet normal -0.707107 0 0.707107
    outer loop
      vertex 3.08272 82.0945 19.3
      vertex 4.68272 75.4945 20.9
      vertex 4.68272 80.4945 20.9
    endloop
  endfacet
  facet normal -0.707107 0 0.707107
    outer loop
      vertex 4.68272 75.4945 20.9
      vertex 3.08272 82.0945 19.3
      vertex 3.08272 73.8945 19.3
    endloop
  endfacet
  facet normal 0 -1 0
    outer loop
      vertex 3.08272 73.8945 18.1
      vertex 18.8827 73.8945 19.3
      vertex 3.08272 73.8945 19.3
    endloop
  endfacet
  facet normal 0 -1 -0
    outer loop
      vertex 18.8827 73.8945 19.3
      vertex 3.08272 73.8945 18.1
      vertex 18.8827 73.8945 18.1
    endloop
  endfacet
  facet normal 1 -0 0
    outer loop
      vertex 18.8827 73.8945 19.3
      vertex 18.8827 82.0945 18.1
      vertex 18.8827 82.0945 19.3
    endloop
  endfacet
  facet normal 1 0 0
    outer loop
      vertex 18.8827 82.0945 18.1
      vertex 18.8827 73.8945 19.3
      vertex 18.8827 73.8945 18.1
    endloop
  endfacet
  facet normal 0 1 -0
    outer loop
      vertex 18.8827 82.0945 18.1
      vertex 3.08272 82.0945 19.3
      vertex 18.8827 82.0945 19.3
    endloop
  endfacet
  facet normal 0 1 0
    outer loop
      vertex 3.08272 82.0945 19.3
      vertex 18.8827 82.0945 18.1
      vertex 3.08272 82.0945 18.1
    endloop
  endfacet
  facet normal -1 0 0
    outer loop
      vertex 3.08272 73.8945 18.1
      vertex 3.08272 82.0945 19.3
      vertex 3.08272 82.0945 18.1
    endloop
  endfacet
  facet normal -1 -0 0
    outer loop
      vertex 3.08272 82.0945 19.3
      vertex 3.08272 73.8945 18.1
      vertex 3.08272 73.8945 19.3
    endloop
  endfacet
  facet normal 0 1 -0
    outer loop
      vertex 14.9827 80.4945 14.2
      vertex 4.68272 80.4945 16.5
      vertex 17.2827 80.4945 16.5
    endloop
  endfacet
  facet normal 0 1 0
    outer loop
      vertex 14.9827 80.4945 14.2
      vertex 6.98272 80.4945 14.2
      vertex 4.68272 80.4945 16.5
    endloop
  endfacet
  facet normal 0 1 -0
    outer loop
      vertex 14.9827 80.4945 13.3
      vertex 6.98272 80.4945 14.2
      vertex 14.9827 80.4945 14.2
    endloop
  endfacet
  facet normal 0 1 0
    outer loop
      vertex 6.98272 80.4945 14.2
      vertex 14.9827 80.4945 13.3
      vertex 6.98272 80.4945 13.3
    endloop
  endfacet
  facet normal -1 0 0
    outer loop
      vertex 6.98272 75.4945 13.3
      vertex 6.98272 80.4945 14.2
      vertex 6.98272 80.4945 13.3
    endloop
  endfacet
  facet normal -1 -0 0
    outer loop
      vertex 6.98272 80.4945 14.2
      vertex 6.98272 75.4945 13.3
      vertex 6.98272 75.4945 14.2
    endloop
  endfacet
  facet normal 0 -1 0
    outer loop
      vertex 6.98272 75.4945 25
      vertex 7.48272 75.4945 25.5
      vertex 7.35331 75.4945 25.483
    endloop
  endfacet
  facet normal 0 -1 -0
    outer loop
      vertex 7.48272 75.4945 25.5
      vertex 6.98272 75.4945 25
      vertex 8.48272 75.4945 25.5
    endloop
  endfacet
  facet normal 0 -1 0
    outer loop
      vertex 6.98272 75.4945 25
      vertex 7.35331 75.4945 25.483
      vertex 7.23272 75.4945 25.433
    endloop
  endfacet
  facet normal 0 -1 0
    outer loop
      vertex 8.98272 75.4945 25
      vertex 8.48272 75.4945 25.5
      vertex 6.98272 75.4945 25
    endloop
  endfacet
  facet normal 0 -1 0
    outer loop
      vertex 6.98272 75.4945 25
      vertex 7.23272 75.4945 25.433
      vertex 7.12917 75.4945 25.3536
    endloop
  endfacet
  facet normal 0 -1 0
    outer loop
      vertex 8.48272 75.4945 25.5
      vertex 8.98272 75.4945 25
      vertex 8.61213 75.4945 25.483
    endloop
  endfacet
  facet normal 0 -1 0
    outer loop
      vertex 6.98272 75.4945 25
      vertex 7.12917 75.4945 25.3536
      vertex 7.04971 75.4945 25.25
    endloop
  endfacet
  facet normal 0 -1 0
    outer loop
      vertex 8.61213 75.4945 25.483
      vertex 8.98272 75.4945 25
      vertex 8.73272 75.4945 25.433
    endloop
  endfacet
  facet normal 0 -1 0
    outer loop
      vertex 6.98272 75.4945 25
      vertex 7.04971 75.4945 25.25
      vertex 6.99976 75.4945 25.1294
    endloop
  endfacet
  facet normal 0 -1 0
    outer loop
      vertex 8.73272 75.4945 25.433
      vertex 8.98272 75.4945 25
      vertex 8.83628 75.4945 25.3536
    endloop
  endfacet
  facet normal 0 -1 0
    outer loop
      vertex 8.83628 75.4945 25.3536
      vertex 8.98272 75.4945 25
      vertex 8.91574 75.4945 25.25
    endloop
  endfacet
  facet normal 0 -1 0
    outer loop
      vertex 8.91574 75.4945 25.25
      vertex 8.98272 75.4945 25
      vertex 8.96569 75.4945 25.1294
    endloop
  endfacet
  facet normal 0 -1 0
    outer loop
      vertex 6.98272 75.4945 25
      vertex 8.98272 75.4945 24
      vertex 8.98272 75.4945 25
    endloop
  endfacet
  facet normal 0 -1 0
    outer loop
      vertex 6.98272 75.4945 23.2
      vertex 9.98272 75.4945 24
      vertex 8.98272 75.4945 24
    endloop
  endfacet
  facet normal 0 -1 -0
    outer loop
      vertex 9.98272 75.4945 24
      vertex 4.68272 75.4945 20.9
      vertex 11.9827 75.4945 24
    endloop
  endfacet
  facet normal 0 -1 0
    outer loop
      vertex 9.98272 75.4945 24
      vertex 6.98272 75.4945 23.2
      vertex 4.68272 75.4945 20.9
    endloop
  endfacet
  facet normal 0 -1 0
    outer loop
      vertex 6.98272 75.4945 23.2
      vertex 8.98272 75.4945 24
      vertex 6.98272 75.4945 25
    endloop
  endfacet
  facet normal 0 -1 0
    outer loop
      vertex 9.98272 75.4945 25
      vertex 10.4827 75.4945 25.5
      vertex 10.3533 75.4945 25.483
    endloop
  endfacet
  facet normal 0 -1 -0
    outer loop
      vertex 10.4827 75.4945 25.5
      vertex 9.98272 75.4945 25
      vertex 11.4827 75.4945 25.5
    endloop
  endfacet
  facet normal 0 -1 0
    outer loop
      vertex 9.98272 75.4945 25
      vertex 10.3533 75.4945 25.483
      vertex 10.2327 75.4945 25.433
    endloop
  endfacet
  facet normal 0 -1 0
    outer loop
      vertex 11.9827 75.4945 25
      vertex 11.4827 75.4945 25.5
      vertex 9.98272 75.4945 25
    endloop
  endfacet
  facet normal 0 -1 0
    outer loop
      vertex 9.98272 75.4945 25
      vertex 10.2327 75.4945 25.433
      vertex 10.1292 75.4945 25.3536
    endloop
  endfacet
  facet normal 0 -1 0
    outer loop
      vertex 11.4827 75.4945 25.5
      vertex 11.9827 75.4945 25
      vertex 11.6121 75.4945 25.483
    endloop
  endfacet
  facet normal 0 -1 0
    outer loop
      vertex 9.98272 75.4945 25
      vertex 10.1292 75.4945 25.3536
      vertex 10.0497 75.4945 25.25
    endloop
  endfacet
  facet normal 0 -1 0
    outer loop
      vertex 11.6121 75.4945 25.483
      vertex 11.9827 75.4945 25
      vertex 11.7327 75.4945 25.433
    endloop
  endfacet
  facet normal 0 -1 0
    outer loop
      vertex 9.98272 75.4945 25
      vertex 10.0497 75.4945 25.25
      vertex 9.99976 75.4945 25.1294
    endloop
  endfacet
  facet normal 0 -1 0
    outer loop
      vertex 11.7327 75.4945 25.433
      vertex 11.9827 75.4945 25
      vertex 11.8363 75.4945 25.3536
    endloop
  endfacet
  facet normal 0 -1 0
    outer loop
      vertex 11.8363 75.4945 25.3536
      vertex 11.9827 75.4945 25
      vertex 11.9157 75.4945 25.25
    endloop
  endfacet
  facet normal 0 -1 0
    outer loop
      vertex 11.9157 75.4945 25.25
      vertex 11.9827 75.4945 25
      vertex 11.9657 75.4945 25.1294
    endloop
  endfacet
  facet normal 0 -1 0
    outer loop
      vertex 9.98272 75.4945 24
      vertex 11.9827 75.4945 25
      vertex 9.98272 75.4945 25
    endloop
  endfacet
  facet normal 0 -1 -0
    outer loop
      vertex 11.9827 75.4945 25
      vertex 9.98272 75.4945 24
      vertex 11.9827 75.4945 24
    endloop
  endfacet
  facet normal 0 -1 0
    outer loop
      vertex 12.9827 75.4945 25
      vertex 13.4827 75.4945 25.5
      vertex 13.3533 75.4945 25.483
    endloop
  endfacet
  facet normal 0 -1 -0
    outer loop
      vertex 13.4827 75.4945 25.5
      vertex 12.9827 75.4945 25
      vertex 14.4827 75.4945 25.5
    endloop
  endfacet
  facet normal 0 -1 0
    outer loop
      vertex 12.9827 75.4945 25
      vertex 13.3533 75.4945 25.483
      vertex 13.2327 75.4945 25.433
    endloop
  endfacet
  facet normal 0 -1 0
    outer loop
      vertex 14.9827 75.4945 25
      vertex 14.4827 75.4945 25.5
      vertex 12.9827 75.4945 25
    endloop
  endfacet
  facet normal 0 -1 0
    outer loop
      vertex 12.9827 75.4945 25
      vertex 13.2327 75.4945 25.433
      vertex 13.1292 75.4945 25.3536
    endloop
  endfacet
  facet normal 0 -1 0
    outer loop
      vertex 14.4827 75.4945 25.5
      vertex 14.9827 75.4945 25
      vertex 14.6121 75.4945 25.483
    endloop
  endfacet
  facet normal 0 -1 0
    outer loop
      vertex 12.9827 75.4945 25
      vertex 13.1292 75.4945 25.3536
      vertex 13.0497 75.4945 25.25
    endloop
  endfacet
  facet normal 0 -1 0
    outer loop
      vertex 14.6121 75.4945 25.483
      vertex 14.9827 75.4945 25
      vertex 14.7327 75.4945 25.433
    endloop
  endfacet
  facet normal 0 -1 0
    outer loop
      vertex 12.9827 75.4945 25
      vertex 13.0497 75.4945 25.25
      vertex 12.9998 75.4945 25.1294
    endloop
  endfacet
  facet normal 0 -1 0
    outer loop
      vertex 14.7327 75.4945 25.433
      vertex 14.9827 75.4945 25
      vertex 14.8363 75.4945 25.3536
    endloop
  endfacet
  facet normal 0 -1 0
    outer loop
      vertex 14.8363 75.4945 25.3536
      vertex 14.9827 75.4945 25
      vertex 14.9157 75.4945 25.25
    endloop
  endfacet
  facet normal 0 -1 0
    outer loop
      vertex 14.9157 75.4945 25.25
      vertex 14.9827 75.4945 25
      vertex 14.9657 75.4945 25.1294
    endloop
  endfacet
  facet normal 0 -1 0
    outer loop
      vertex 12.9827 75.4945 24
      vertex 14.9827 75.4945 25
      vertex 12.9827 75.4945 25
    endloop
  endfacet
  facet normal 0 -1 0
    outer loop
      vertex 12.9827 75.4945 24
      vertex 14.9827 75.4945 23.2
      vertex 14.9827 75.4945 25
    endloop
  endfacet
  facet normal 0 -1 0
    outer loop
      vertex 17.2827 75.4945 20.9
      vertex 11.9827 75.4945 24
      vertex 4.68272 75.4945 20.9
    endloop
  endfacet
  facet normal -0 -1 -0
    outer loop
      vertex 14.9827 75.4945 23.2
      vertex 11.9827 75.4945 24
      vertex 17.2827 75.4945 20.9
    endloop
  endfacet
  facet normal 0 -1 0
    outer loop
      vertex 11.9827 75.4945 24
      vertex 14.9827 75.4945 23.2
      vertex 12.9827 75.4945 24
    endloop
  endfacet
  facet normal 1 -0 0
    outer loop
      vertex 14.9827 75.4945 25
      vertex 14.9827 80.4945 23.2
      vertex 14.9827 80.4945 25
    endloop
  endfacet
  facet normal 1 0 0
    outer loop
      vertex 14.9827 80.4945 23.2
      vertex 14.9827 75.4945 25
      vertex 14.9827 75.4945 23.2
    endloop
  endfacet
  facet normal 1 -0 0
    outer loop
      vertex 14.9827 75.4945 14.2
      vertex 14.9827 80.4945 13.3
      vertex 14.9827 80.4945 14.2
    endloop
  endfacet
  facet normal 1 0 0
    outer loop
      vertex 14.9827 80.4945 13.3
      vertex 14.9827 75.4945 14.2
      vertex 14.9827 75.4945 13.3
    endloop
  endfacet
  facet normal 0 -1 0
    outer loop
      vertex 6.98272 75.4945 14.2
      vertex 17.2827 75.4945 16.5
      vertex 4.68272 75.4945 16.5
    endloop
  endfacet
  facet normal 0 -1 0
    outer loop
      vertex 6.98272 75.4945 14.2
      vertex 14.9827 75.4945 14.2
      vertex 17.2827 75.4945 16.5
    endloop
  endfacet
  facet normal 0 -1 0
    outer loop
      vertex 6.98272 75.4945 13.3
      vertex 14.9827 75.4945 14.2
      vertex 6.98272 75.4945 14.2
    endloop
  endfacet
  facet normal 0 -1 -0
    outer loop
      vertex 14.9827 75.4945 14.2
      vertex 6.98272 75.4945 13.3
      vertex 14.9827 75.4945 13.3
    endloop
  endfacet
  facet normal 0 0 -1
    outer loop
      vertex 6.98272 75.4945 13.3
      vertex 14.9827 80.4945 13.3
      vertex 14.9827 75.4945 13.3
    endloop
  endfacet
  facet normal -0 0 -1
    outer loop
      vertex 14.9827 80.4945 13.3
      vertex 6.98272 75.4945 13.3
      vertex 6.98272 80.4945 13.3
    endloop
  endfacet
  facet normal -0 0.707106 0.707108
    outer loop
      vertex 2.58272 75.0945 16.3
      vertex 20.9827 73.4945 17.9
      vertex 19.3827 75.0945 16.3
    endloop
  endfacet
  facet normal 0 0.707106 0.707108
    outer loop
      vertex 20.9827 73.4945 17.9
      vertex 2.58272 75.0945 16.3
      vertex 0.982722 73.4945 17.9
    endloop
  endfacet
  facet normal 0 -0.707107 0.707106
    outer loop
      vertex 2.58272 80.8945 16.3
      vertex 20.9827 82.4945 17.9
      vertex 0.982722 82.4945 17.9
    endloop
  endfacet
  facet normal 0 -0.707107 0.707106
    outer loop
      vertex 20.9827 82.4945 17.9
      vertex 2.58272 80.8945 16.3
      vertex 19.3827 80.8945 16.3
    endloop
  endfacet
  facet normal -0.707107 0 0.707107
    outer loop
      vertex 16.3827 80.8945 13.3
      vertex 19.3827 75.0945 16.3
      vertex 19.3827 80.8945 16.3
    endloop
  endfacet
  facet normal -0.707107 0 0.707107
    outer loop
      vertex 19.3827 75.0945 16.3
      vertex 16.3827 80.8945 13.3
      vertex 16.3827 75.0945 13.3
    endloop
  endfacet
  facet normal -0.707107 0 0.707107
    outer loop
      vertex 19.3827 75.0945 16.3
      vertex 20.9827 82.4945 17.9
      vertex 19.3827 80.8945 16.3
    endloop
  endfacet
  facet normal -0.707107 0 0.707107
    outer loop
      vertex 20.9827 82.4945 17.9
      vertex 19.3827 75.0945 16.3
      vertex 20.9827 73.4945 17.9
    endloop
  endfacet
  facet normal 0.707107 0 0.707107
    outer loop
      vertex 2.58272 80.8945 16.3
      vertex 5.58272 75.0945 13.3
      vertex 5.58272 80.8945 13.3
    endloop
  endfacet
  facet normal 0.707107 0 0.707107
    outer loop
      vertex 5.58272 75.0945 13.3
      vertex 2.58272 80.8945 16.3
      vertex 2.58272 75.0945 16.3
    endloop
  endfacet
  facet normal 0.707107 0 0.707107
    outer loop
      vertex 0.982722 82.4945 17.9
      vertex 2.58272 75.0945 16.3
      vertex 2.58272 80.8945 16.3
    endloop
  endfacet
  facet normal 0.707107 0 0.707107
    outer loop
      vertex 2.58272 75.0945 16.3
      vertex 0.982722 82.4945 17.9
      vertex 0.982722 73.4945 17.9
    endloop
  endfacet
  facet normal 0 0 -1
    outer loop
      vertex 4.98272 80.8945 23.3
      vertex 16.9827 82.4945 23.3
      vertex 16.9827 80.8945 23.3
    endloop
  endfacet
  facet normal -0 0 -1
    outer loop
      vertex 16.9827 82.4945 23.3
      vertex 4.98272 80.8945 23.3
      vertex 4.98272 82.4945 23.3
    endloop
  endfacet
  facet normal 0 0 -1
    outer loop
      vertex 4.98272 73.4945 23.3
      vertex 16.9827 75.0945 23.3
      vertex 16.9827 73.4945 23.3
    endloop
  endfacet
  facet normal -0 0 -1
    outer loop
      vertex 16.9827 75.0945 23.3
      vertex 4.98272 73.4945 23.3
      vertex 4.98272 75.0945 23.3
    endloop
  endfacet
  facet normal -0.707107 0 -0.707107
    outer loop
      vertex 20.9827 82.4945 19.3
      vertex 16.9827 80.8945 23.3
      vertex 16.9827 82.4945 23.3
    endloop
  endfacet
  facet normal -0.707107 -0 -0.707107
    outer loop
      vertex 16.9827 80.8945 23.3
      vertex 16.9827 75.0945 23.3
      vertex 16.3827 80.8945 23.9
    endloop
  endfacet
  facet normal -0.707107 0 -0.707107
    outer loop
      vertex 20.9827 82.4945 19.3
      vertex 16.9827 75.0945 23.3
      vertex 16.9827 80.8945 23.3
    endloop
  endfacet
  facet normal -0.707107 0 -0.707107
    outer loop
      vertex 20.9827 73.4945 19.3
      vertex 16.9827 75.0945 23.3
      vertex 20.9827 82.4945 19.3
    endloop
  endfacet
  facet normal -0.707107 -0 -0.707107
    outer loop
      vertex 16.9827 75.0945 23.3
      vertex 20.9827 73.4945 19.3
      vertex 16.9827 73.4945 23.3
    endloop
  endfacet
  facet normal -0.707107 -0 -0.707107
    outer loop
      vertex 16.3827 80.8945 23.9
      vertex 16.9827 75.0945 23.3
      vertex 16.3827 75.0945 23.9
    endloop
  endfacet
  facet normal 0 -1 0
    outer loop
      vertex 0.982722 82.4945 17.9
      vertex 4.98272 82.4945 23.3
      vertex 0.982722 82.4945 19.3
    endloop
  endfacet
  facet normal 0 -1 -0
    outer loop
      vertex 4.98272 82.4945 23.3
      vertex 0.982722 82.4945 17.9
      vertex 16.9827 82.4945 23.3
    endloop
  endfacet
  facet normal 0 -1 0
    outer loop
      vertex 20.9827 82.4945 17.9
      vertex 16.9827 82.4945 23.3
      vertex 0.982722 82.4945 17.9
    endloop
  endfacet
  facet normal 0 -1 0
    outer loop
      vertex 16.9827 82.4945 23.3
      vertex 20.9827 82.4945 17.9
      vertex 20.9827 82.4945 19.3
    endloop
  endfacet
  facet normal 0.707107 0 -0.707107
    outer loop
      vertex 5.58272 80.8945 23.9
      vertex 5.58272 75.0945 23.9
      vertex 4.98272 80.8945 23.3
    endloop
  endfacet
  facet normal 0.707107 0 -0.707107
    outer loop
      vertex 4.98272 80.8945 23.3
      vertex 0.982722 82.4945 19.3
      vertex 4.98272 82.4945 23.3
    endloop
  endfacet
  facet normal 0.707107 0 -0.707107
    outer loop
      vertex 4.98272 75.0945 23.3
      vertex 4.98272 80.8945 23.3
      vertex 5.58272 75.0945 23.9
    endloop
  endfacet
  facet normal 0.707107 0 -0.707107
    outer loop
      vertex 4.98272 80.8945 23.3
      vertex 4.98272 75.0945 23.3
      vertex 0.982722 82.4945 19.3
    endloop
  endfacet
  facet normal 0.707107 0 -0.707107
    outer loop
      vertex 0.982722 73.4945 19.3
      vertex 4.98272 75.0945 23.3
      vertex 4.98272 73.4945 23.3
    endloop
  endfacet
  facet normal 0.707107 0 -0.707107
    outer loop
      vertex 4.98272 75.0945 23.3
      vertex 0.982722 73.4945 19.3
      vertex 0.982722 82.4945 19.3
    endloop
  endfacet
  facet normal 0 1 -0
    outer loop
      vertex 20.9827 73.4945 17.9
      vertex 16.9827 73.4945 23.3
      vertex 20.9827 73.4945 19.3
    endloop
  endfacet
  facet normal 0 1 0
    outer loop
      vertex 16.9827 73.4945 23.3
      vertex 20.9827 73.4945 17.9
      vertex 4.98272 73.4945 23.3
    endloop
  endfacet
  facet normal 0 1 0
    outer loop
      vertex 0.982722 73.4945 17.9
      vertex 4.98272 73.4945 23.3
      vertex 20.9827 73.4945 17.9
    endloop
  endfacet
  facet normal 0 1 0
    outer loop
      vertex 4.98272 73.4945 23.3
      vertex 0.982722 73.4945 17.9
      vertex 0.982722 73.4945 19.3
    endloop
  endfacet
  facet normal -1 0 0
    outer loop
      vertex 20.9827 73.4945 17.9
      vertex 20.9827 82.4945 19.3
      vertex 20.9827 82.4945 17.9
    endloop
  endfacet
  facet normal -1 -0 0
    outer loop
      vertex 20.9827 82.4945 19.3
      vertex 20.9827 73.4945 17.9
      vertex 20.9827 73.4945 19.3
    endloop
  endfacet
  facet normal 1 -0 0
    outer loop
      vertex 0.982722 73.4945 19.3
      vertex 0.982722 82.4945 17.9
      vertex 0.982722 82.4945 19.3
    endloop
  endfacet
  facet normal 1 0 0
    outer loop
      vertex 0.982722 82.4945 17.9
      vertex 0.982722 73.4945 19.3
      vertex 0.982722 73.4945 17.9
    endloop
  endfacet
  facet normal 1 -0 0
    outer loop
      vertex 5.58272 75.0945 25.5
      vertex 5.58272 80.8945 23.9
      vertex 5.58272 80.8945 25.5
    endloop
  endfacet
  facet normal 1 0 0
    outer loop
      vertex 5.58272 80.8945 23.9
      vertex 5.58272 75.0945 25.5
      vertex 5.58272 75.0945 23.9
    endloop
  endfacet
  facet normal 0 1 -0
    outer loop
      vertex 16.3827 75.0945 13.3
      vertex 2.58272 75.0945 16.3
      vertex 19.3827 75.0945 16.3
    endloop
  endfacet
  facet normal 0 1 0
    outer loop
      vertex 2.58272 75.0945 16.3
      vertex 16.3827 75.0945 13.3
      vertex 5.58272 75.0945 13.3
    endloop
  endfacet
  facet normal 0 1 -0
    outer loop
      vertex 16.3827 75.0945 23.9
      vertex 5.58272 75.0945 25.5
      vertex 16.3827 75.0945 25.5
    endloop
  endfacet
  facet normal 0 1 0
    outer loop
      vertex 16.3827 75.0945 23.9
      vertex 5.58272 75.0945 23.9
      vertex 5.58272 75.0945 25.5
    endloop
  endfacet
  facet normal 0 1 0
    outer loop
      vertex 16.9827 75.0945 23.3
      vertex 5.58272 75.0945 23.9
      vertex 16.3827 75.0945 23.9
    endloop
  endfacet
  facet normal 0 1 0
    outer loop
      vertex 5.58272 75.0945 23.9
      vertex 16.9827 75.0945 23.3
      vertex 4.98272 75.0945 23.3
    endloop
  endfacet
  facet normal 0 -1 0
    outer loop
      vertex 5.58272 80.8945 13.3
      vertex 19.3827 80.8945 16.3
      vertex 2.58272 80.8945 16.3
    endloop
  endfacet
  facet normal 0 -1 0
    outer loop
      vertex 19.3827 80.8945 16.3
      vertex 5.58272 80.8945 13.3
      vertex 16.3827 80.8945 13.3
    endloop
  endfacet
  facet normal -0.565138 -0.824996 0
    outer loop
      vertex -6.77893 90 20.3
      vertex -6.51458 89.8189 24.3
      vertex -6.77893 90 24.3
    endloop
  endfacet
  facet normal -0.565138 -0.824996 -0
    outer loop
      vertex -6.51458 89.8189 24.3
      vertex -6.77893 90 20.3
      vertex -6.51458 89.8189 20.3
    endloop
  endfacet
  facet normal -0.882526 -0.470264 0
    outer loop
      vertex -5.31095 87.5601 20.3
      vertex -6.51458 89.8189 24.3
      vertex -6.51458 89.8189 20.3
    endloop
  endfacet
  facet normal -0.882526 -0.470264 0
    outer loop
      vertex -6.51458 89.8189 24.3
      vertex -5.31095 87.5601 20.3
      vertex -5.31095 87.5601 24.3
    endloop
  endfacet
  facet normal -0.96648 -0.25674 0
    outer loop
      vertex -4.93564 86.1473 20.3
      vertex -5.31095 87.5601 24.3
      vertex -5.31095 87.5601 20.3
    endloop
  endfacet
  facet normal -0.96648 -0.25674 0
    outer loop
      vertex -5.31095 87.5601 24.3
      vertex -4.93564 86.1473 20.3
      vertex -4.93564 86.1473 24.3
    endloop
  endfacet
  facet normal -0.996193 -0.0871757 0
    outer loop
      vertex -4.85098 85.1798 20.3
      vertex -4.93564 86.1473 24.3
      vertex -4.93564 86.1473 20.3
    endloop
  endfacet
  facet normal -0.996193 -0.0871757 0
    outer loop
      vertex -4.93564 86.1473 24.3
      vertex -4.85098 85.1798 20.3
      vertex -4.85098 85.1798 24.3
    endloop
  endfacet
  facet normal -1 1.45982e-05 0
    outer loop
      vertex -4.85102 82.3707 20.3
      vertex -4.85098 85.1798 24.3
      vertex -4.85098 85.1798 20.3
    endloop
  endfacet
  facet normal -1 1.45982e-05 0
    outer loop
      vertex -4.85098 85.1798 24.3
      vertex -4.85102 82.3707 20.3
      vertex -4.85102 82.3707 24.3
    endloop
  endfacet
  facet normal -1 0 0
    outer loop
      vertex -4.85102 72 20.3
      vertex -4.85102 82.3707 24.3
      vertex -4.85102 82.3707 20.3
    endloop
  endfacet
  facet normal -1 -0 0
    outer loop
      vertex -4.85102 82.3707 24.3
      vertex -4.85102 72 20.3
      vertex -4.85102 72 24.3
    endloop
  endfacet
  facet normal -0.68362 0.729838 0
    outer loop
      vertex 35 87.3559 20.3
      vertex 34.4229 86.8153 24.3
      vertex 35 87.3559 24.3
    endloop
  endfacet
  facet normal -0.68362 0.729838 0
    outer loop
      vertex 34.4229 86.8153 24.3
      vertex 35 87.3559 20.3
      vertex 34.4229 86.8153 20.3
    endloop
  endfacet
  facet normal -0.414305 0.910138 0
    outer loop
      vertex 34.4229 86.8153 20.3
      vertex 32.7815 86.0682 24.3
      vertex 34.4229 86.8153 24.3
    endloop
  endfacet
  facet normal -0.414305 0.910138 0
    outer loop
      vertex 32.7815 86.0682 24.3
      vertex 34.4229 86.8153 20.3
      vertex 32.7815 86.0682 20.3
    endloop
  endfacet
  facet normal -0.414282 0.910149 0
    outer loop
      vertex 32.7815 86.0682 20.3
      vertex 31.8433 85.6411 24.3
      vertex 32.7815 86.0682 24.3
    endloop
  endfacet
  facet normal -0.414282 0.910149 0
    outer loop
      vertex 31.8433 85.6411 24.3
      vertex 32.7815 86.0682 20.3
      vertex 31.8433 85.6411 20.3
    endloop
  endfacet
  facet normal -0.229981 0.973195 0
    outer loop
      vertex 31.8433 85.6411 20.3
      vertex 29.567 85.1032 24.3
      vertex 31.8433 85.6411 24.3
    endloop
  endfacet
  facet normal -0.229981 0.973195 0
    outer loop
      vertex 29.567 85.1032 24.3
      vertex 31.8433 85.6411 20.3
      vertex 29.567 85.1032 20.3
    endloop
  endfacet
  facet normal 0 1 -0
    outer loop
      vertex 29.567 85.1032 20.3
      vertex 14.8328 85.1032 24.3
      vertex 29.567 85.1032 24.3
    endloop
  endfacet
  facet normal 0 1 0
    outer loop
      vertex 14.8328 85.1032 24.3
      vertex 29.567 85.1032 20.3
      vertex 14.8328 85.1032 20.3
    endloop
  endfacet
  facet normal 3.87776e-05 1 -0
    outer loop
      vertex 14.8328 85.1032 20.3
      vertex 12.275 85.1033 24.3
      vertex 14.8328 85.1032 24.3
    endloop
  endfacet
  facet normal 3.87776e-05 1 0
    outer loop
      vertex 12.275 85.1033 24.3
      vertex 14.8328 85.1032 20.3
      vertex 12.275 85.1033 20.3
    endloop
  endfacet
  facet normal 0.101654 0.99482 -0
    outer loop
      vertex 12.275 85.1033 20.3
      vertex 10.4671 85.288 24.3
      vertex 12.275 85.1033 24.3
    endloop
  endfacet
  facet normal 0.101654 0.99482 0
    outer loop
      vertex 10.4671 85.288 24.3
      vertex 12.275 85.1033 20.3
      vertex 10.4671 85.288 20.3
    endloop
  endfacet
  facet normal 0.32738 0.944893 -0
    outer loop
      vertex 10.4671 85.288 20.3
      vertex 8.89169 85.8339 24.3
      vertex 10.4671 85.288 24.3
    endloop
  endfacet
  facet normal 0.32738 0.944893 0
    outer loop
      vertex 8.89169 85.8339 24.3
      vertex 10.4671 85.288 20.3
      vertex 8.89169 85.8339 20.3
    endloop
  endfacet
  facet normal 0.398851 0.917016 -0
    outer loop
      vertex 8.89169 85.8339 20.3
      vertex 7.55385 86.4158 24.3
      vertex 8.89169 85.8339 24.3
    endloop
  endfacet
  facet normal 0.398851 0.917016 0
    outer loop
      vertex 7.55385 86.4158 24.3
      vertex 8.89169 85.8339 20.3
      vertex 7.55385 86.4158 20.3
    endloop
  endfacet
  facet normal 0.567484 0.823384 -0
    outer loop
      vertex 7.55385 86.4158 20.3
      vertex 5.83761 87.5986 24.3
      vertex 7.55385 86.4158 24.3
    endloop
  endfacet
  facet normal 0.567484 0.823384 0
    outer loop
      vertex 5.83761 87.5986 24.3
      vertex 7.55385 86.4158 20.3
      vertex 5.83761 87.5986 20.3
    endloop
  endfacet
  facet normal 0.714565 0.699569 0
    outer loop
      vertex 5.83761 87.5986 24.3
      vertex 3.48661 90 20.3
      vertex 3.48661 90 24.3
    endloop
  endfacet
  facet normal 0.714565 0.699569 0
    outer loop
      vertex 3.48661 90 20.3
      vertex 5.83761 87.5986 24.3
      vertex 5.83761 87.5986 20.3
    endloop
  endfacet
  facet normal -0.565139 -0.824996 0
    outer loop
      vertex -9.76936 90 24.3
      vertex -7.81131 88.6587 25.5
      vertex -9.76936 90 25.5
    endloop
  endfacet
  facet normal -0.565139 -0.824996 -0
    outer loop
      vertex -7.81131 88.6587 25.5
      vertex -9.76936 90 24.3
      vertex -7.81131 88.6587 24.3
    endloop
  endfacet
  facet normal -0.882525 -0.470265 0
    outer loop
      vertex -6.8942 86.9376 24.3
      vertex -7.81131 88.6587 25.5
      vertex -7.81131 88.6587 24.3
    endloop
  endfacet
  facet normal -0.882525 -0.470265 0
    outer loop
      vertex -7.81131 88.6587 25.5
      vertex -6.8942 86.9376 24.3
      vertex -6.8942 86.9376 25.5
    endloop
  endfacet
  facet normal -0.96648 -0.25674 0
    outer loop
      vertex -6.60648 85.8545 24.3
      vertex -6.8942 86.9376 25.5
      vertex -6.8942 86.9376 24.3
    endloop
  endfacet
  facet normal -0.96648 -0.25674 0
    outer loop
      vertex -6.8942 86.9376 25.5
      vertex -6.60648 85.8545 24.3
      vertex -6.60648 85.8545 25.5
    endloop
  endfacet
  facet normal -0.996193 -0.0871759 0
    outer loop
      vertex -6.54098 85.106 24.3
      vertex -6.60648 85.8545 25.5
      vertex -6.60648 85.8545 24.3
    endloop
  endfacet
  facet normal -0.996193 -0.0871759 0
    outer loop
      vertex -6.60648 85.8545 25.5
      vertex -6.54098 85.106 24.3
      vertex -6.54098 85.106 25.5
    endloop
  endfacet
  facet normal -1 1.46435e-05 0
    outer loop
      vertex -6.54102 82.3707 24.3
      vertex -6.54098 85.106 25.5
      vertex -6.54098 85.106 24.3
    endloop
  endfacet
  facet normal -1 1.46435e-05 0
    outer loop
      vertex -6.54098 85.106 25.5
      vertex -6.54102 82.3707 24.3
      vertex -6.54102 82.3707 25.5
    endloop
  endfacet
  facet normal -1 0 0
    outer loop
      vertex -6.54102 72 24.3
      vertex -6.54102 82.3707 25.5
      vertex -6.54102 82.3707 24.3
    endloop
  endfacet
  facet normal -1 -0 0
    outer loop
      vertex -6.54102 82.3707 25.5
      vertex -6.54102 72 24.3
      vertex -6.54102 72 25.5
    endloop
  endfacet
  facet normal -0.729991 0.683456 0
    outer loop
      vertex 34.7885 89.4734 24.3
      vertex 35 89.6993 25.5
      vertex 35 89.6993 24.3
    endloop
  endfacet
  facet normal -0.729991 0.683456 0
    outer loop
      vertex 35 89.6993 25.5
      vertex 34.7885 89.4734 24.3
      vertex 34.7885 89.4734 25.5
    endloop
  endfacet
  facet normal -0.683615 0.729843 0
    outer loop
      vertex 34.7885 89.4734 24.3
      vertex 33.4701 88.2385 25.5
      vertex 34.7885 89.4734 25.5
    endloop
  endfacet
  facet normal -0.683615 0.729843 0
    outer loop
      vertex 33.4701 88.2385 25.5
      vertex 34.7885 89.4734 24.3
      vertex 33.4701 88.2385 24.3
    endloop
  endfacet
  facet normal -0.414307 0.910137 0
    outer loop
      vertex 33.4701 88.2385 24.3
      vertex 32.0813 87.6063 25.5
      vertex 33.4701 88.2385 25.5
    endloop
  endfacet
  facet normal -0.414307 0.910137 0
    outer loop
      vertex 32.0813 87.6063 25.5
      vertex 33.4701 88.2385 24.3
      vertex 32.0813 87.6063 24.3
    endloop
  endfacet
  facet normal -0.41428 0.91015 0
    outer loop
      vertex 32.0813 87.6063 24.3
      vertex 31.2937 87.2478 25.5
      vertex 32.0813 87.6063 25.5
    endloop
  endfacet
  facet normal -0.41428 0.91015 0
    outer loop
      vertex 31.2937 87.2478 25.5
      vertex 32.0813 87.6063 24.3
      vertex 31.2937 87.2478 24.3
    endloop
  endfacet
  facet normal -0.229984 0.973194 0
    outer loop
      vertex 31.2937 87.2478 24.3
      vertex 29.37 86.7932 25.5
      vertex 31.2937 87.2478 25.5
    endloop
  endfacet
  facet normal -0.229984 0.973194 0
    outer loop
      vertex 29.37 86.7932 25.5
      vertex 31.2937 87.2478 24.3
      vertex 29.37 86.7932 24.3
    endloop
  endfacet
  facet normal 0 1 -0
    outer loop
      vertex 29.37 86.7932 24.3
      vertex 14.8328 86.7932 25.5
      vertex 29.37 86.7932 25.5
    endloop
  endfacet
  facet normal 0 1 0
    outer loop
      vertex 14.8328 86.7932 25.5
      vertex 29.37 86.7932 24.3
      vertex 14.8328 86.7932 24.3
    endloop
  endfacet
  facet normal 4.01287e-05 1 -0
    outer loop
      vertex 14.8328 86.7932 24.3
      vertex 12.3612 86.7933 25.5
      vertex 14.8328 86.7932 25.5
    endloop
  endfacet
  facet normal 4.01287e-05 1 0
    outer loop
      vertex 12.3612 86.7933 25.5
      vertex 14.8328 86.7932 24.3
      vertex 12.3612 86.7933 24.3
    endloop
  endfacet
  facet normal 0.101656 0.99482 -0
    outer loop
      vertex 12.3612 86.7933 24.3
      vertex 10.8345 86.9493 25.5
      vertex 12.3612 86.7933 25.5
    endloop
  endfacet
  facet normal 0.101656 0.99482 0
    outer loop
      vertex 10.8345 86.9493 25.5
      vertex 12.3612 86.7933 24.3
      vertex 10.8345 86.9493 24.3
    endloop
  endfacet
  facet normal 0.327379 0.944893 -0
    outer loop
      vertex 10.8345 86.9493 24.3
      vertex 9.50626 87.4095 25.5
      vertex 10.8345 86.9493 25.5
    endloop
  endfacet
  facet normal 0.327379 0.944893 0
    outer loop
      vertex 9.50626 87.4095 25.5
      vertex 10.8345 86.9493 24.3
      vertex 9.50626 87.4095 24.3
    endloop
  endfacet
  facet normal 0.398851 0.917016 -0
    outer loop
      vertex 9.50626 87.4095 24.3
      vertex 8.37807 87.9002 25.5
      vertex 9.50626 87.4095 25.5
    endloop
  endfacet
  facet normal 0.398851 0.917016 0
    outer loop
      vertex 8.37807 87.9002 25.5
      vertex 9.50626 87.4095 24.3
      vertex 8.37807 87.9002 24.3
    endloop
  endfacet
  facet normal 0.567484 0.823385 -0
    outer loop
      vertex 8.37807 87.9002 24.3
      vertex 6.93105 88.8975 25.5
      vertex 8.37807 87.9002 25.5
    endloop
  endfacet
  facet normal 0.567484 0.823385 0
    outer loop
      vertex 6.93105 88.8975 25.5
      vertex 8.37807 87.9002 24.3
      vertex 6.93105 88.8975 24.3
    endloop
  endfacet
  facet normal 0.714565 0.699569 0
    outer loop
      vertex 6.93105 88.8975 25.5
      vertex 5.85169 90 24.3
      vertex 5.85169 90 25.5
    endloop
  endfacet
  facet normal 0.714565 0.699569 0
    outer loop
      vertex 5.85169 90 24.3
      vertex 6.93105 88.8975 25.5
      vertex 6.93105 88.8975 24.3
    endloop
  endfacet
  facet normal 0 0 -1
    outer loop
      vertex -6.54102 82.3707 24.3
      vertex -4.85102 82.3707 24.3
      vertex -4.85102 72 24.3
    endloop
  endfacet
  facet normal 0 -0 -1
    outer loop
      vertex -6.54098 85.106 24.3
      vertex -4.85102 82.3707 24.3
      vertex -6.54102 82.3707 24.3
    endloop
  endfacet
  facet normal 0 0 -1
    outer loop
      vertex -4.85102 82.3707 24.3
      vertex -6.54098 85.106 24.3
      vertex -4.93564 86.1473 24.3
    endloop
  endfacet
  facet normal 0 0 -1
    outer loop
      vertex -6.8942 86.9376 24.3
      vertex -4.93564 86.1473 24.3
      vertex -6.60648 85.8545 24.3
    endloop
  endfacet
  facet normal 0 0 -1
    outer loop
      vertex -6.54102 82.3707 24.3
      vertex -4.85102 72 24.3
      vertex -6.54102 72 24.3
    endloop
  endfacet
  facet normal 0 0 -1
    outer loop
      vertex -6.60648 85.8545 24.3
      vertex -4.93564 86.1473 24.3
      vertex -6.54098 85.106 24.3
    endloop
  endfacet
  facet normal -0 0 -1
    outer loop
      vertex -4.85098 85.1798 24.3
      vertex -4.85102 82.3707 24.3
      vertex -4.93564 86.1473 24.3
    endloop
  endfacet
  facet normal 0 0 -1
    outer loop
      vertex -4.93564 86.1473 24.3
      vertex -6.8942 86.9376 24.3
      vertex -5.31095 87.5601 24.3
    endloop
  endfacet
  facet normal 0 0 -1
    outer loop
      vertex -7.81131 88.6587 24.3
      vertex -5.31095 87.5601 24.3
      vertex -6.8942 86.9376 24.3
    endloop
  endfacet
  facet normal 0 0 -1
    outer loop
      vertex -5.31095 87.5601 24.3
      vertex -7.81131 88.6587 24.3
      vertex -6.51458 89.8189 24.3
    endloop
  endfacet
  facet normal -0 0 -1
    outer loop
      vertex -6.51458 89.8189 24.3
      vertex -7.81131 88.6587 24.3
      vertex -6.77893 90 24.3
    endloop
  endfacet
  facet normal -0 0 -1
    outer loop
      vertex -6.77893 90 24.3
      vertex -7.81131 88.6587 24.3
      vertex -9.76936 90 24.3
    endloop
  endfacet
  facet normal 0 0 -1
    outer loop
      vertex 35 87.3559 24.3
      vertex 34.7885 89.4734 24.3
      vertex 35 89.6993 24.3
    endloop
  endfacet
  facet normal 0 0 -1
    outer loop
      vertex 33.4701 88.2385 24.3
      vertex 35 87.3559 24.3
      vertex 34.4229 86.8153 24.3
    endloop
  endfacet
  facet normal 0 0 -1
    outer loop
      vertex 35 87.3559 24.3
      vertex 33.4701 88.2385 24.3
      vertex 34.7885 89.4734 24.3
    endloop
  endfacet
  facet normal 0 0 -1
    outer loop
      vertex 32.7815 86.0682 24.3
      vertex 33.4701 88.2385 24.3
      vertex 34.4229 86.8153 24.3
    endloop
  endfacet
  facet normal 0 0 -1
    outer loop
      vertex 32.7815 86.0682 24.3
      vertex 32.0813 87.6063 24.3
      vertex 33.4701 88.2385 24.3
    endloop
  endfacet
  facet normal 0 0 -1
    outer loop
      vertex 31.2937 87.2478 24.3
      vertex 32.7815 86.0682 24.3
      vertex 31.8433 85.6411 24.3
    endloop
  endfacet
  facet normal 0 0 -1
    outer loop
      vertex 32.7815 86.0682 24.3
      vertex 31.2937 87.2478 24.3
      vertex 32.0813 87.6063 24.3
    endloop
  endfacet
  facet normal 0 0 -1
    outer loop
      vertex 29.37 86.7932 24.3
      vertex 31.8433 85.6411 24.3
      vertex 29.567 85.1032 24.3
    endloop
  endfacet
  facet normal 0 0 -1
    outer loop
      vertex 31.8433 85.6411 24.3
      vertex 29.37 86.7932 24.3
      vertex 31.2937 87.2478 24.3
    endloop
  endfacet
  facet normal 0 0 -1
    outer loop
      vertex 14.8328 85.1032 24.3
      vertex 29.37 86.7932 24.3
      vertex 29.567 85.1032 24.3
    endloop
  endfacet
  facet normal -0 0 -1
    outer loop
      vertex 29.37 86.7932 24.3
      vertex 14.8328 85.1032 24.3
      vertex 14.8328 86.7932 24.3
    endloop
  endfacet
  facet normal 0 0 -1
    outer loop
      vertex 14.8328 85.1032 24.3
      vertex 12.3612 86.7933 24.3
      vertex 14.8328 86.7932 24.3
    endloop
  endfacet
  facet normal 0 0 -1
    outer loop
      vertex 12.275 85.1033 24.3
      vertex 12.3612 86.7933 24.3
      vertex 14.8328 85.1032 24.3
    endloop
  endfacet
  facet normal 0 0 -1
    outer loop
      vertex 12.275 85.1033 24.3
      vertex 10.8345 86.9493 24.3
      vertex 12.3612 86.7933 24.3
    endloop
  endfacet
  facet normal 0 0 -1
    outer loop
      vertex 10.4671 85.288 24.3
      vertex 10.8345 86.9493 24.3
      vertex 12.275 85.1033 24.3
    endloop
  endfacet
  facet normal 0 0 -1
    outer loop
      vertex 8.89169 85.8339 24.3
      vertex 10.8345 86.9493 24.3
      vertex 10.4671 85.288 24.3
    endloop
  endfacet
  facet normal -0 0 -1
    outer loop
      vertex 10.8345 86.9493 24.3
      vertex 8.89169 85.8339 24.3
      vertex 9.50626 87.4095 24.3
    endloop
  endfacet
  facet normal 0 0 -1
    outer loop
      vertex 8.89169 85.8339 24.3
      vertex 8.37807 87.9002 24.3
      vertex 9.50626 87.4095 24.3
    endloop
  endfacet
  facet normal 0 0 -1
    outer loop
      vertex 7.55385 86.4158 24.3
      vertex 8.37807 87.9002 24.3
      vertex 8.89169 85.8339 24.3
    endloop
  endfacet
  facet normal 0 0 -1
    outer loop
      vertex 7.55385 86.4158 24.3
      vertex 6.93105 88.8975 24.3
      vertex 8.37807 87.9002 24.3
    endloop
  endfacet
  facet normal 0 0 -1
    outer loop
      vertex 5.83761 87.5986 24.3
      vertex 6.93105 88.8975 24.3
      vertex 7.55385 86.4158 24.3
    endloop
  endfacet
  facet normal -0 0 -1
    outer loop
      vertex 6.93105 88.8975 24.3
      vertex 5.83761 87.5986 24.3
      vertex 5.85169 90 24.3
    endloop
  endfacet
  facet normal -0 0 -1
    outer loop
      vertex 5.85169 90 24.3
      vertex 5.83761 87.5986 24.3
      vertex 3.48661 90 24.3
    endloop
  endfacet
  facet normal 0 0 -1
    outer loop
      vertex -4.85102 82.3707 20.3
      vertex -1.01728 84.4945 20.3
      vertex -1.01728 72 20.3
    endloop
  endfacet
  facet normal 0 0 -1
    outer loop
      vertex -4.85102 82.3707 20.3
      vertex -1.01728 72 20.3
      vertex -4.85102 72 20.3
    endloop
  endfacet
  facet normal -0 0 -1
    outer loop
      vertex -1.01728 84.4945 20.3
      vertex -4.85102 82.3707 20.3
      vertex -4.85098 85.1798 20.3
    endloop
  endfacet
  facet normal 0 0 -1
    outer loop
      vertex 35 72 20.3
      vertex 34.4229 86.8153 20.3
      vertex 35 87.3559 20.3
    endloop
  endfacet
  facet normal 0 0 -1
    outer loop
      vertex 35 72 20.3
      vertex 32.7815 86.0682 20.3
      vertex 34.4229 86.8153 20.3
    endloop
  endfacet
  facet normal 0 0 -1
    outer loop
      vertex 35 72 20.3
      vertex 31.8433 85.6411 20.3
      vertex 32.7815 86.0682 20.3
    endloop
  endfacet
  facet normal 0 0 -1
    outer loop
      vertex 35 72 20.3
      vertex 29.567 85.1032 20.3
      vertex 31.8433 85.6411 20.3
    endloop
  endfacet
  facet normal 0 0 -1
    outer loop
      vertex 22.9827 72 20.3
      vertex 29.567 85.1032 20.3
      vertex 35 72 20.3
    endloop
  endfacet
  facet normal 0 0 -1
    outer loop
      vertex 22.9827 84.4945 20.3
      vertex 29.567 85.1032 20.3
      vertex 22.9827 72 20.3
    endloop
  endfacet
  facet normal 0 0 -1
    outer loop
      vertex 22.9827 84.4945 20.3
      vertex 14.8328 85.1032 20.3
      vertex 29.567 85.1032 20.3
    endloop
  endfacet
  facet normal 0 0 -1
    outer loop
      vertex 22.9827 84.4945 20.3
      vertex 12.275 85.1033 20.3
      vertex 14.8328 85.1032 20.3
    endloop
  endfacet
  facet normal 0 0 -1
    outer loop
      vertex -1.01728 84.4945 20.3
      vertex 12.275 85.1033 20.3
      vertex 22.9827 84.4945 20.3
    endloop
  endfacet
  facet normal 0 0 -1
    outer loop
      vertex -1.01728 84.4945 20.3
      vertex 10.4671 85.288 20.3
      vertex 12.275 85.1033 20.3
    endloop
  endfacet
  facet normal 0 0 -1
    outer loop
      vertex -1.01728 84.4945 20.3
      vertex 8.89169 85.8339 20.3
      vertex 10.4671 85.288 20.3
    endloop
  endfacet
  facet normal 0 0 -1
    outer loop
      vertex -1.01728 84.4945 20.3
      vertex 7.55385 86.4158 20.3
      vertex 8.89169 85.8339 20.3
    endloop
  endfacet
  facet normal 0 0 -1
    outer loop
      vertex -1.01728 84.4945 20.3
      vertex 5.83761 87.5986 20.3
      vertex 7.55385 86.4158 20.3
    endloop
  endfacet
  facet normal 0 0 -1
    outer loop
      vertex -1.01728 84.4945 20.3
      vertex 3.48661 90 20.3
      vertex 5.83761 87.5986 20.3
    endloop
  endfacet
  facet normal 0 0 -1
    outer loop
      vertex -4.93564 86.1473 20.3
      vertex -1.01728 84.4945 20.3
      vertex -4.85098 85.1798 20.3
    endloop
  endfacet
  facet normal 0 0 -1
    outer loop
      vertex -5.31095 87.5601 20.3
      vertex -1.01728 84.4945 20.3
      vertex -4.93564 86.1473 20.3
    endloop
  endfacet
  facet normal 0 0 -1
    outer loop
      vertex -1.01728 84.4945 20.3
      vertex -5.31095 87.5601 20.3
      vertex 3.48661 90 20.3
    endloop
  endfacet
  facet normal 0 0 -1
    outer loop
      vertex -6.51458 89.8189 20.3
      vertex 3.48661 90 20.3
      vertex -5.31095 87.5601 20.3
    endloop
  endfacet
  facet normal -0 0 -1
    outer loop
      vertex 3.48661 90 20.3
      vertex -6.51458 89.8189 20.3
      vertex -6.77893 90 20.3
    endloop
  endfacet
  facet normal -1 0 0
    outer loop
      vertex -1.01728 72 13.3
      vertex -1.01728 84.4945 20.3
      vertex -1.01728 84.4945 13.3
    endloop
  endfacet
  facet normal -1 -0 0
    outer loop
      vertex -1.01728 84.4945 20.3
      vertex -1.01728 72 13.3
      vertex -1.01728 72 20.3
    endloop
  endfacet
  facet normal 0 1 -0
    outer loop
      vertex 22.9827 84.4945 13.3
      vertex -1.01728 84.4945 20.3
      vertex 22.9827 84.4945 20.3
    endloop
  endfacet
  facet normal 0 1 0
    outer loop
      vertex -1.01728 84.4945 20.3
      vertex 22.9827 84.4945 13.3
      vertex -1.01728 84.4945 13.3
    endloop
  endfacet
  facet normal 1 -0 0
    outer loop
      vertex 22.9827 72 20.3
      vertex 22.9827 84.4945 13.3
      vertex 22.9827 84.4945 20.3
    endloop
  endfacet
  facet normal 1 0 0
    outer loop
      vertex 22.9827 84.4945 13.3
      vertex 22.9827 72 20.3
      vertex 22.9827 72 13.3
    endloop
  endfacet
  facet normal -0 0 1
    outer loop
      vertex 14.8328 86.7932 25.5
      vertex 16.3827 80.8945 25.5
      vertex 29.37 86.7932 25.5
    endloop
  endfacet
  facet normal 0 0 1
    outer loop
      vertex 12.3612 86.7933 25.5
      vertex 16.3827 80.8945 25.5
      vertex 14.8328 86.7932 25.5
    endloop
  endfacet
  facet normal 0 0 1
    outer loop
      vertex 10.8345 86.9493 25.5
      vertex 16.3827 80.8945 25.5
      vertex 12.3612 86.7933 25.5
    endloop
  endfacet
  facet normal 0 0 1
    outer loop
      vertex 5.58272 80.8945 25.5
      vertex 10.8345 86.9493 25.5
      vertex 9.50626 87.4095 25.5
    endloop
  endfacet
  facet normal 0 0 1
    outer loop
      vertex 5.58272 80.8945 25.5
      vertex 9.50626 87.4095 25.5
      vertex 8.37807 87.9002 25.5
    endloop
  endfacet
  facet normal 0 0 1
    outer loop
      vertex 5.58272 80.8945 25.5
      vertex 8.37807 87.9002 25.5
      vertex 6.93105 88.8975 25.5
    endloop
  endfacet
  facet normal 0 0 1
    outer loop
      vertex 10.8345 86.9493 25.5
      vertex 5.58272 80.8945 25.5
      vertex 16.3827 80.8945 25.5
    endloop
  endfacet
  facet normal 0 0 1
    outer loop
      vertex 5.85169 90 25.5
      vertex 5.58272 80.8945 25.5
      vertex 6.93105 88.8975 25.5
    endloop
  endfacet
  facet normal -0 0 1
    outer loop
      vertex -6.54102 82.3707 25.5
      vertex 5.58272 80.8945 25.5
      vertex -6.54098 85.106 25.5
    endloop
  endfacet
  facet normal 0 0 1
    outer loop
      vertex 5.85169 90 25.5
      vertex -6.54098 85.106 25.5
      vertex 5.58272 80.8945 25.5
    endloop
  endfacet
  facet normal 0 0 1
    outer loop
      vertex 5.85169 90 25.5
      vertex -6.60648 85.8545 25.5
      vertex -6.54098 85.106 25.5
    endloop
  endfacet
  facet normal 0 0 1
    outer loop
      vertex 5.85169 90 25.5
      vertex -6.8942 86.9376 25.5
      vertex -6.60648 85.8545 25.5
    endloop
  endfacet
  facet normal 0 0 1
    outer loop
      vertex 5.85169 90 25.5
      vertex -7.81131 88.6587 25.5
      vertex -6.8942 86.9376 25.5
    endloop
  endfacet
  facet normal 0 -0 1
    outer loop
      vertex -7.81131 88.6587 25.5
      vertex 5.85169 90 25.5
      vertex -9.76936 90 25.5
    endloop
  endfacet
  facet normal -0 0 1
    outer loop
      vertex 34.7885 89.4734 25.5
      vertex 35 72 25.5
      vertex 35 89.6993 25.5
    endloop
  endfacet
  facet normal -0 0 1
    outer loop
      vertex 33.4701 88.2385 25.5
      vertex 35 72 25.5
      vertex 34.7885 89.4734 25.5
    endloop
  endfacet
  facet normal -0 0 1
    outer loop
      vertex 32.0813 87.6063 25.5
      vertex 35 72 25.5
      vertex 33.4701 88.2385 25.5
    endloop
  endfacet
  facet normal -0 0 1
    outer loop
      vertex 31.2937 87.2478 25.5
      vertex 35 72 25.5
      vertex 32.0813 87.6063 25.5
    endloop
  endfacet
  facet normal -0 0 1
    outer loop
      vertex 29.37 86.7932 25.5
      vertex 35 72 25.5
      vertex 31.2937 87.2478 25.5
    endloop
  endfacet
  facet normal 0 0 1
    outer loop
      vertex 16.3827 75.0945 25.5
      vertex 29.37 86.7932 25.5
      vertex 16.3827 80.8945 25.5
    endloop
  endfacet
  facet normal 0 0 1
    outer loop
      vertex 29.37 86.7932 25.5
      vertex 16.3827 75.0945 25.5
      vertex 35 72 25.5
    endloop
  endfacet
  facet normal 0 0 1
    outer loop
      vertex -6.54102 72 25.5
      vertex 16.3827 75.0945 25.5
      vertex 5.58272 75.0945 25.5
    endloop
  endfacet
  facet normal 0 0 1
    outer loop
      vertex 5.58272 80.8945 25.5
      vertex -6.54102 82.3707 25.5
      vertex 5.58272 75.0945 25.5
    endloop
  endfacet
  facet normal 0 0 1
    outer loop
      vertex 16.3827 75.0945 25.5
      vertex -6.54102 72 25.5
      vertex 35 72 25.5
    endloop
  endfacet
  facet normal 0 0 1
    outer loop
      vertex -6.54102 72 25.5
      vertex 5.58272 75.0945 25.5
      vertex -6.54102 82.3707 25.5
    endloop
  endfacet
  facet normal 0 0 -1
    outer loop
      vertex 16.3827 80.8945 13.3
      vertex 22.9827 72 13.3
      vertex 16.3827 75.0945 13.3
    endloop
  endfacet
  facet normal 0 0 -1
    outer loop
      vertex 22.9827 72 13.3
      vertex 5.58272 75.0945 13.3
      vertex 16.3827 75.0945 13.3
    endloop
  endfacet
  facet normal -0 0 -1
    outer loop
      vertex 5.58272 75.0945 13.3
      vertex -1.01728 72 13.3
      vertex 5.58272 80.8945 13.3
    endloop
  endfacet
  facet normal 0 0 -1
    outer loop
      vertex -1.01728 72 13.3
      vertex 5.58272 75.0945 13.3
      vertex 22.9827 72 13.3
    endloop
  endfacet
  facet normal 0 0 -1
    outer loop
      vertex 22.9827 72 13.3
      vertex 16.3827 80.8945 13.3
      vertex 22.9827 84.4945 13.3
    endloop
  endfacet
  facet normal 0 0 -1
    outer loop
      vertex 5.58272 80.8945 13.3
      vertex 22.9827 84.4945 13.3
      vertex 16.3827 80.8945 13.3
    endloop
  endfacet
  facet normal 0 0 -1
    outer loop
      vertex 5.58272 80.8945 13.3
      vertex -1.01728 84.4945 13.3
      vertex 22.9827 84.4945 13.3
    endloop
  endfacet
  facet normal 0 0 -1
    outer loop
      vertex -1.01728 84.4945 13.3
      vertex 5.58272 80.8945 13.3
      vertex -1.01728 72 13.3
    endloop
  endfacet
  facet normal 0 -1 0
    outer loop
      vertex 5.58272 80.8945 23.9
      vertex 16.3827 80.8945 25.5
      vertex 5.58272 80.8945 25.5
    endloop
  endfacet
  facet normal 0 -1 0
    outer loop
      vertex 5.58272 80.8945 23.9
      vertex 16.3827 80.8945 23.9
      vertex 16.3827 80.8945 25.5
    endloop
  endfacet
  facet normal 0 -1 0
    outer loop
      vertex 4.98272 80.8945 23.3
      vertex 16.3827 80.8945 23.9
      vertex 5.58272 80.8945 23.9
    endloop
  endfacet
  facet normal 0 -1 -0
    outer loop
      vertex 16.3827 80.8945 23.9
      vertex 4.98272 80.8945 23.3
      vertex 16.9827 80.8945 23.3
    endloop
  endfacet
  facet normal -1 0 0
    outer loop
      vertex 16.3827 75.0945 23.9
      vertex 16.3827 80.8945 25.5
      vertex 16.3827 80.8945 23.9
    endloop
  endfacet
  facet normal -1 -0 0
    outer loop
      vertex 16.3827 80.8945 25.5
      vertex 16.3827 75.0945 23.9
      vertex 16.3827 75.0945 25.5
    endloop
  endfacet
  facet normal 0 -1 0
    outer loop
      vertex -1.01728 72 13.3
      vertex 22.9827 72 20.3
      vertex -1.01728 72 20.3
    endloop
  endfacet
  facet normal 0 -1 -0
    outer loop
      vertex 22.9827 72 20.3
      vertex -1.01728 72 13.3
      vertex 22.9827 72 13.3
    endloop
  endfacet
  facet normal 0 -1 0
    outer loop
      vertex -4.85102 72 24.3
      vertex -6.54102 72 25.5
      vertex -6.54102 72 24.3
    endloop
  endfacet
  facet normal 0 -1 0
    outer loop
      vertex 22.9827 72 20.3
      vertex -6.54102 72 25.5
      vertex -4.85102 72 24.3
    endloop
  endfacet
  facet normal 0 -1 0
    outer loop
      vertex -1.01728 72 20.3
      vertex -4.85102 72 24.3
      vertex -4.85102 72 20.3
    endloop
  endfacet
  facet normal 0 -1 0
    outer loop
      vertex 22.9827 72 20.3
      vertex -4.85102 72 24.3
      vertex -1.01728 72 20.3
    endloop
  endfacet
  facet normal 0 -1 0
    outer loop
      vertex -6.54102 72 25.5
      vertex 22.9827 72 20.3
      vertex 35 72 25.5
    endloop
  endfacet
  facet normal 0 -1 -0
    outer loop
      vertex 35 72 25.5
      vertex 22.9827 72 20.3
      vertex 35 72 20.3
    endloop
  endfacet
  facet normal 1 0 0
    outer loop
      vertex 35 89.6993 25.5
      vertex 35 87.3559 24.3
      vertex 35 89.6993 24.3
    endloop
  endfacet
  facet normal 1 -0 0
    outer loop
      vertex 35 72 25.5
      vertex 35 87.3559 24.3
      vertex 35 89.6993 25.5
    endloop
  endfacet
  facet normal 1 0 0
    outer loop
      vertex 35 72 20.3
      vertex 35 87.3559 24.3
      vertex 35 72 25.5
    endloop
  endfacet
  facet normal 1 0 0
    outer loop
      vertex 35 87.3559 24.3
      vertex 35 72 20.3
      vertex 35 87.3559 20.3
    endloop
  endfacet
  facet normal 0 1 -0
    outer loop
      vertex 3.48661 90 20.3
      vertex -6.77893 90 24.3
      vertex 3.48661 90 24.3
    endloop
  endfacet
  facet normal 0 1 0
    outer loop
      vertex -6.77893 90 24.3
      vertex 3.48661 90 20.3
      vertex -6.77893 90 20.3
    endloop
  endfacet
  facet normal 0 1 0
    outer loop
      vertex 3.48661 90 24.3
      vertex 5.85169 90 25.5
      vertex 5.85169 90 24.3
    endloop
  endfacet
  facet normal 0 1 0
    outer loop
      vertex -6.77893 90 24.3
      vertex 5.85169 90 25.5
      vertex 3.48661 90 24.3
    endloop
  endfacet
  facet normal 0 1 0
    outer loop
      vertex 5.85169 90 25.5
      vertex -6.77893 90 24.3
      vertex -9.76936 90 25.5
    endloop
  endfacet
  facet normal 0 1 0
    outer loop
      vertex -9.76936 90 25.5
      vertex -6.77893 90 24.3
      vertex -9.76936 90 24.3
    endloop
  endfacet
endsolid OpenSCAD_Model
