solid OpenSCAD_Model
  facet normal 0 1 0
    outer loop
      vertex 67.2574 79.9312 8.6
      vertex 65.8174 79.9312 6.75
      vertex 65.8174 79.9312 8.6
    endloop
  endfacet
  facet normal 0 1 -0
    outer loop
      vertex 67.2574 79.9312 5.4
      vertex 65.8174 79.9312 6.75
      vertex 67.2574 79.9312 8.6
    endloop
  endfacet
  facet normal 0 1 0
    outer loop
      vertex 65.6327 79.9312 5.4
      vertex 65.8174 79.9312 6.75
      vertex 67.2574 79.9312 5.4
    endloop
  endfacet
  facet normal 0 1 0
    outer loop
      vertex 65.8174 79.9312 6.75
      vertex 65.6327 79.9312 5.4
      vertex 65.6327 79.9312 6.75
    endloop
  endfacet
  facet normal -0 0 1
    outer loop
      vertex 65.6327 84.1312 5.4
      vertex 67.2574 79.9312 5.4
      vertex 67.2574 84.1312 5.4
    endloop
  endfacet
  facet normal 0 0 1
    outer loop
      vertex 67.2574 79.9312 5.4
      vertex 65.6327 84.1312 5.4
      vertex 65.6327 79.9312 5.4
    endloop
  endfacet
  facet normal 0 0 -1
    outer loop
      vertex 65.8174 79.9312 8.6
      vertex 67.2574 84.1312 8.6
      vertex 67.2574 79.9312 8.6
    endloop
  endfacet
  facet normal -0 0 -1
    outer loop
      vertex 67.2574 84.1312 8.6
      vertex 65.8174 79.9312 8.6
      vertex 65.8174 84.1312 8.6
    endloop
  endfacet
  facet normal 0 -1 0
    outer loop
      vertex 65.6327 84.1312 6.75
      vertex 65.6327 84.1312 5.4
      vertex 65.8174 84.1312 6.75
    endloop
  endfacet
  facet normal 0 -1 0
    outer loop
      vertex 65.8174 84.1312 6.75
      vertex 67.2574 84.1312 8.6
      vertex 65.8174 84.1312 8.6
    endloop
  endfacet
  facet normal 0 -1 0
    outer loop
      vertex 67.2574 84.1312 5.4
      vertex 65.8174 84.1312 6.75
      vertex 65.6327 84.1312 5.4
    endloop
  endfacet
  facet normal 0 -1 0
    outer loop
      vertex 65.8174 84.1312 6.75
      vertex 67.2574 84.1312 5.4
      vertex 67.2574 84.1312 8.6
    endloop
  endfacet
  facet normal -1 0 0
    outer loop
      vertex 65.6327 88.1312 5.15
      vertex 65.6327 84.1312 5.4
      vertex 65.6327 88.1312 6.75
    endloop
  endfacet
  facet normal -1 0 0
    outer loop
      vertex 65.6327 88.1312 5.15
      vertex 65.6327 79.9312 5.4
      vertex 65.6327 84.1312 5.4
    endloop
  endfacet
  facet normal -1 0 0
    outer loop
      vertex 65.6327 75.3312 5.15
      vertex 65.6327 79.9312 5.4
      vertex 65.6327 88.1312 5.15
    endloop
  endfacet
  facet normal -1 0 0
    outer loop
      vertex 65.6327 75.3312 6.75
      vertex 65.6327 79.9312 5.4
      vertex 65.6327 75.3312 5.15
    endloop
  endfacet
  facet normal -1 0 0
    outer loop
      vertex 65.6327 79.9312 5.4
      vertex 65.6327 75.3312 6.75
      vertex 65.6327 79.9312 6.75
    endloop
  endfacet
  facet normal -1 -0 0
    outer loop
      vertex 65.6327 88.1312 6.75
      vertex 65.6327 84.1312 5.4
      vertex 65.6327 84.1312 6.75
    endloop
  endfacet
  facet normal 0 0 1
    outer loop
      vertex 65.8174 88.7312 6.75
      vertex 65.6327 88.1312 6.75
      vertex 65.8174 84.1312 6.75
    endloop
  endfacet
  facet normal 0 0 1
    outer loop
      vertex 65.8174 88.7312 6.75
      vertex 59.0327 88.1312 6.75
      vertex 65.6327 88.1312 6.75
    endloop
  endfacet
  facet normal 0 0 1
    outer loop
      vertex 59.0327 88.1312 6.75
      vertex 58.4327 88.7312 6.75
      vertex 59.0327 75.3312 6.75
    endloop
  endfacet
  facet normal -0 0 1
    outer loop
      vertex 58.4327 88.7312 6.75
      vertex 59.0327 88.1312 6.75
      vertex 65.8174 88.7312 6.75
    endloop
  endfacet
  facet normal 0 0 1
    outer loop
      vertex 65.8174 84.1312 6.75
      vertex 65.6327 88.1312 6.75
      vertex 65.6327 84.1312 6.75
    endloop
  endfacet
  facet normal -0 0 1
    outer loop
      vertex 65.6327 79.9312 6.75
      vertex 65.8174 76.1003 6.75
      vertex 65.8174 79.9312 6.75
    endloop
  endfacet
  facet normal 0 0 1
    outer loop
      vertex 65.6327 75.3312 6.75
      vertex 65.8174 76.1003 6.75
      vertex 65.6327 79.9312 6.75
    endloop
  endfacet
  facet normal 0 0 1
    outer loop
      vertex 65.8174 76.1003 6.75
      vertex 65.6327 75.3312 6.75
      vertex 65.7679 75.5989 6.75
    endloop
  endfacet
  facet normal -0 0 1
    outer loop
      vertex 65.6327 75.3312 6.75
      vertex 65.565 74.7312 6.75
      vertex 65.7679 75.5989 6.75
    endloop
  endfacet
  facet normal -0 0 1
    outer loop
      vertex 59.0327 75.3312 6.75
      vertex 65.565 74.7312 6.75
      vertex 65.6327 75.3312 6.75
    endloop
  endfacet
  facet normal 0 0 1
    outer loop
      vertex 59.0327 75.3312 6.75
      vertex 58.4327 74.7312 6.75
      vertex 65.565 74.7312 6.75
    endloop
  endfacet
  facet normal 0 0 1
    outer loop
      vertex 58.4327 74.7312 6.75
      vertex 59.0327 75.3312 6.75
      vertex 58.4327 88.7312 6.75
    endloop
  endfacet
  facet normal 0 -1 0
    outer loop
      vertex 59.0327 88.1312 5.15
      vertex 65.6327 88.1312 6.75
      vertex 59.0327 88.1312 6.75
    endloop
  endfacet
  facet normal 0 -1 -0
    outer loop
      vertex 65.6327 88.1312 6.75
      vertex 59.0327 88.1312 5.15
      vertex 65.6327 88.1312 5.15
    endloop
  endfacet
  facet normal 1 -0 0
    outer loop
      vertex 59.0327 75.3312 6.75
      vertex 59.0327 88.1312 5.15
      vertex 59.0327 88.1312 6.75
    endloop
  endfacet
  facet normal 1 0 0
    outer loop
      vertex 59.0327 88.1312 5.15
      vertex 59.0327 75.3312 6.75
      vertex 59.0327 75.3312 5.15
    endloop
  endfacet
  facet normal 0 1 -0
    outer loop
      vertex 65.6327 75.3312 5.15
      vertex 59.0327 75.3312 6.75
      vertex 65.6327 75.3312 6.75
    endloop
  endfacet
  facet normal 0 1 0
    outer loop
      vertex 59.0327 75.3312 6.75
      vertex 65.6327 75.3312 5.15
      vertex 59.0327 75.3312 5.15
    endloop
  endfacet
  facet normal -0 0 1
    outer loop
      vertex 59.0327 88.1312 5.15
      vertex 65.6327 75.3312 5.15
      vertex 65.6327 88.1312 5.15
    endloop
  endfacet
  facet normal 0 0 1
    outer loop
      vertex 65.6327 75.3312 5.15
      vertex 59.0327 88.1312 5.15
      vertex 59.0327 75.3312 5.15
    endloop
  endfacet
  facet normal 0 1 -0
    outer loop
      vertex 65.8174 88.7312 1.2
      vertex 58.4327 88.7312 6.75
      vertex 65.8174 88.7312 6.75
    endloop
  endfacet
  facet normal 0 1 0
    outer loop
      vertex 58.4327 88.7312 6.75
      vertex 65.8174 88.7312 1.2
      vertex 58.4327 88.7312 1.2
    endloop
  endfacet
  facet normal -1 0 0
    outer loop
      vertex 58.4327 74.7312 1.2
      vertex 58.4327 88.7312 6.75
      vertex 58.4327 88.7312 1.2
    endloop
  endfacet
  facet normal -1 -0 0
    outer loop
      vertex 58.4327 88.7312 6.75
      vertex 58.4327 74.7312 1.2
      vertex 58.4327 74.7312 6.75
    endloop
  endfacet
  facet normal 0 -1 0
    outer loop
      vertex 58.4327 74.7312 1.2
      vertex 65.565 74.7312 6.75
      vertex 58.4327 74.7312 6.75
    endloop
  endfacet
  facet normal 0 -1 -0
    outer loop
      vertex 65.565 74.7312 6.75
      vertex 58.4327 74.7312 1.2
      vertex 65.565 74.7312 1.2
    endloop
  endfacet
  facet normal -0.973743 0.227648 0
    outer loop
      vertex 65.7679 75.5989 24.3
      vertex 65.7679 75.5989 6.75
      vertex 65.565 74.7312 6.75
    endloop
  endfacet
  facet normal -0.973743 0.227649 -3.81492e-08
    outer loop
      vertex 65.7679 75.5989 24.3
      vertex 65.565 74.7312 6.75
      vertex 65.5208 74.5422 24.3
    endloop
  endfacet
  facet normal -0.973743 0.227652 0
    outer loop
      vertex 65.5208 74.5422 1.2
      vertex 65.565 74.7312 6.75
      vertex 65.565 74.7312 1.2
    endloop
  endfacet
  facet normal -0.973743 0.227652 0
    outer loop
      vertex 65.565 74.7312 6.75
      vertex 65.5208 74.5422 1.2
      vertex 65.5208 74.5422 24.3
    endloop
  endfacet
  facet normal -0 0 1
    outer loop
      vertex 59.2665 90 1.2
      vertex 65.8174 88.7312 1.2
      vertex 65.8174 90 1.2
    endloop
  endfacet
  facet normal 0 0 1
    outer loop
      vertex 58.4327 88.7312 1.2
      vertex 59.2665 90 1.2
      vertex 58.8446 89.6202 1.2
    endloop
  endfacet
  facet normal 0 0 1
    outer loop
      vertex 59.2665 90 1.2
      vertex 58.4327 88.7312 1.2
      vertex 65.8174 88.7312 1.2
    endloop
  endfacet
  facet normal 0 0 1
    outer loop
      vertex 56.2412 88.1171 1.2
      vertex 58.4327 88.7312 1.2
      vertex 57.5955 88.7776 1.2
    endloop
  endfacet
  facet normal -0 0 1
    outer loop
      vertex 57.5955 88.7776 1.2
      vertex 58.4327 88.7312 1.2
      vertex 58.8446 89.6202 1.2
    endloop
  endfacet
  facet normal 0 0 1
    outer loop
      vertex 65.565 74.7312 1.2
      vertex 64.7294 73.4353 1.2
      vertex 65.5208 74.5422 1.2
    endloop
  endfacet
  facet normal -0 0 1
    outer loop
      vertex 58.4327 74.7312 1.2
      vertex 64.7294 73.4353 1.2
      vertex 65.565 74.7312 1.2
    endloop
  endfacet
  facet normal 0 0 1
    outer loop
      vertex 64.7294 73.4353 1.2
      vertex 62.8998 72.3284 1.2
      vertex 63.7833 72.6607 1.2
    endloop
  endfacet
  facet normal 0 0 1
    outer loop
      vertex 64.7294 73.4353 1.2
      vertex 58.4327 74.7312 1.2
      vertex 62.8998 72.3284 1.2
    endloop
  endfacet
  facet normal 0 0 1
    outer loop
      vertex 62.8998 72.3284 1.2
      vertex 58.4327 74.7312 1.2
      vertex 62.1643 72.1563 1.2
    endloop
  endfacet
  facet normal 0 0 1
    outer loop
      vertex 58.4327 88.7312 1.2
      vertex 56.2412 88.1171 1.2
      vertex 58.4327 74.7312 1.2
    endloop
  endfacet
  facet normal -0 0 1
    outer loop
      vertex 54.8083 87.6515 1.2
      vertex 58.4327 74.7312 1.2
      vertex 56.2412 88.1171 1.2
    endloop
  endfacet
  facet normal -0 0 1
    outer loop
      vertex 53.3244 87.3898 1.2
      vertex 58.4327 74.7312 1.2
      vertex 54.8083 87.6515 1.2
    endloop
  endfacet
  facet normal -0 0 1
    outer loop
      vertex 51.8186 87.3373 1.2
      vertex 58.4327 74.7312 1.2
      vertex 53.3244 87.3898 1.2
    endloop
  endfacet
  facet normal 0 0 1
    outer loop
      vertex 50 72.1563 1.2
      vertex 51.8186 87.3373 1.2
      vertex 50.3201 87.4948 1.2
    endloop
  endfacet
  facet normal 0 0 1
    outer loop
      vertex 50 72.1563 1.2
      vertex 50.3201 87.4948 1.2
      vertex 50 87.5746 1.2
    endloop
  endfacet
  facet normal 0 0 1
    outer loop
      vertex 58.4327 74.7312 1.2
      vertex 50 72.1563 1.2
      vertex 62.1643 72.1563 1.2
    endloop
  endfacet
  facet normal 0 0 1
    outer loop
      vertex 51.8186 87.3373 1.2
      vertex 50 72.1563 1.2
      vertex 58.4327 74.7312 1.2
    endloop
  endfacet
  facet normal -0.233446 0.97237 0
    outer loop
      vertex 53.9125 90 0
      vertex 53.499 89.9007 4.25
      vertex 53.9125 90 4.25
    endloop
  endfacet
  facet normal -0.233446 0.97237 0
    outer loop
      vertex 53.499 89.9007 4.25
      vertex 53.9125 90 0
      vertex 53.499 89.9007 0
    endloop
  endfacet
  facet normal -0.0784573 0.996917 0
    outer loop
      vertex 53.499 89.9007 0
      vertex 52.1955 89.7981 4.25
      vertex 53.499 89.9007 4.25
    endloop
  endfacet
  facet normal -0.0784573 0.996917 0
    outer loop
      vertex 52.1955 89.7981 4.25
      vertex 53.499 89.9007 0
      vertex 52.1955 89.7981 0
    endloop
  endfacet
  facet normal 0.0784573 0.996917 -0
    outer loop
      vertex 52.1955 89.7981 0
      vertex 50.892 89.9007 4.25
      vertex 52.1955 89.7981 4.25
    endloop
  endfacet
  facet normal 0.0784573 0.996917 0
    outer loop
      vertex 50.892 89.9007 4.25
      vertex 52.1955 89.7981 0
      vertex 50.892 89.9007 0
    endloop
  endfacet
  facet normal 0.233446 0.97237 -0
    outer loop
      vertex 50.892 89.9007 0
      vertex 50.4785 90 4.25
      vertex 50.892 89.9007 4.25
    endloop
  endfacet
  facet normal 0.233446 0.97237 0
    outer loop
      vertex 50.4785 90 4.25
      vertex 50.892 89.9007 0
      vertex 50.4785 90 0
    endloop
  endfacet
  facet normal -0.241926 -0.970295 0
    outer loop
      vertex 50 87.5746 1.2
      vertex 50.3201 87.4948 9
      vertex 50 87.5746 9
    endloop
  endfacet
  facet normal -0.241926 -0.970295 -0
    outer loop
      vertex 50.3201 87.4948 9
      vertex 50 87.5746 1.2
      vertex 50.3201 87.4948 1.2
    endloop
  endfacet
  facet normal -0.104526 -0.994522 0
    outer loop
      vertex 50.3201 87.4948 1.2
      vertex 51.8186 87.3373 9
      vertex 50.3201 87.4948 9
    endloop
  endfacet
  facet normal -0.104526 -0.994522 -0
    outer loop
      vertex 51.8186 87.3373 9
      vertex 50.3201 87.4948 1.2
      vertex 51.8186 87.3373 1.2
    endloop
  endfacet
  facet normal 0.0348977 -0.999391 0
    outer loop
      vertex 51.8186 87.3373 1.2
      vertex 53.3244 87.3898 9
      vertex 51.8186 87.3373 9
    endloop
  endfacet
  facet normal 0.0348977 -0.999391 0
    outer loop
      vertex 53.3244 87.3898 9
      vertex 51.8186 87.3373 1.2
      vertex 53.3244 87.3898 1.2
    endloop
  endfacet
  facet normal 0.173648 -0.984808 0
    outer loop
      vertex 53.3244 87.3898 1.2
      vertex 54.8083 87.6515 9
      vertex 53.3244 87.3898 9
    endloop
  endfacet
  facet normal 0.173648 -0.984808 0
    outer loop
      vertex 54.8083 87.6515 9
      vertex 53.3244 87.3898 1.2
      vertex 54.8083 87.6515 1.2
    endloop
  endfacet
  facet normal 0.309016 -0.951057 0
    outer loop
      vertex 54.8083 87.6515 1.2
      vertex 56.2412 88.1171 9
      vertex 54.8083 87.6515 9
    endloop
  endfacet
  facet normal 0.309016 -0.951057 0
    outer loop
      vertex 56.2412 88.1171 9
      vertex 54.8083 87.6515 1.2
      vertex 56.2412 88.1171 1.2
    endloop
  endfacet
  facet normal 0.438372 -0.898794 0
    outer loop
      vertex 56.2412 88.1171 1.2
      vertex 57.5955 88.7776 9
      vertex 56.2412 88.1171 9
    endloop
  endfacet
  facet normal 0.438372 -0.898794 0
    outer loop
      vertex 57.5955 88.7776 9
      vertex 56.2412 88.1171 1.2
      vertex 57.5955 88.7776 1.2
    endloop
  endfacet
  facet normal 0.559194 -0.829037 0
    outer loop
      vertex 57.5955 88.7776 1.2
      vertex 58.8446 89.6202 9
      vertex 57.5955 88.7776 9
    endloop
  endfacet
  facet normal 0.559194 -0.829037 0
    outer loop
      vertex 58.8446 89.6202 9
      vertex 57.5955 88.7776 1.2
      vertex 58.8446 89.6202 1.2
    endloop
  endfacet
  facet normal 0.669127 -0.743148 0
    outer loop
      vertex 58.8446 89.6202 1.2
      vertex 59.2665 90 9
      vertex 58.8446 89.6202 9
    endloop
  endfacet
  facet normal 0.669127 -0.743148 0
    outer loop
      vertex 59.2665 90 9
      vertex 58.8446 89.6202 1.2
      vertex 59.2665 90 1.2
    endloop
  endfacet
  facet normal -0.270023 0.932229 -0.240907
    outer loop
      vertex 53.8862 90 4.44411
      vertex 53.893 90 4.43649
      vertex 53.8571 89.9916 4.44411
    endloop
  endfacet
  facet normal -0.233366 0.972083 -0.0244114
    outer loop
      vertex 53.9125 90 4.25
      vertex 53.8571 89.9916 4.44411
      vertex 53.893 90 4.43649
    endloop
  endfacet
  facet normal -0.233377 0.97208 -0.0244146
    outer loop
      vertex 53.8571 89.9916 4.44411
      vertex 53.9125 90 4.25
      vertex 53.499 89.9007 4.25
    endloop
  endfacet
  facet normal -0.117148 0.964804 -0.235435
    outer loop
      vertex 53.8571 89.9916 4.44411
      vertex 53.499 89.9007 4.25
      vertex 52.53 89.8304 4.44411
    endloop
  endfacet
  facet normal -0.0784205 0.996449 -0.0306514
    outer loop
      vertex 52.53 89.8304 4.44411
      vertex 53.499 89.9007 4.25
      vertex 52.1955 89.7981 4.25
    endloop
  endfacet
  facet normal 0.0391893 0.972558 -0.229336
    outer loop
      vertex 52.53 89.8304 4.44411
      vertex 52.1955 89.7981 4.25
      vertex 51.1942 89.8843 4.44411
    endloop
  endfacet
  facet normal 0.078402 0.996214 -0.0375615
    outer loop
      vertex 51.1942 89.8843 4.44411
      vertex 52.1955 89.7981 4.25
      vertex 50.892 89.9007 4.25
    endloop
  endfacet
  facet normal 0.19501 0.955212 -0.222577
    outer loop
      vertex 50.892 89.9007 4.25
      vertex 50.6273 90 4.44411
      vertex 51.1942 89.8843 4.44411
    endloop
  endfacet
  facet normal 0.195009 0.955212 -0.222577
    outer loop
      vertex 50.6273 90 4.44411
      vertex 50.892 89.9007 4.25
      vertex 50.4934 90 4.32679
    endloop
  endfacet
  facet normal 0.233208 0.971377 -0.0451846
    outer loop
      vertex 50.4934 90 4.32679
      vertex 50.892 89.9007 4.25
      vertex 50.4785 90 4.25
    endloop
  endfacet
  facet normal 0.158888 0.778271 -0.607494
    outer loop
      vertex 51.0654 90 4.64193
      vertex 51.2032 89.9586 4.625
      vertex 51.0007 90 4.625
    endloop
  endfacet
  facet normal 0.158875 0.778244 -0.607531
    outer loop
      vertex 51.2083 90 4.67928
      vertex 51.2032 89.9586 4.625
      vertex 51.0654 90 4.64193
    endloop
  endfacet
  facet normal 0.0319831 0.793651 -0.607532
    outer loop
      vertex 51.2032 89.9586 4.625
      vertex 51.8047 90 4.71068
      vertex 52.527 89.9053 4.625
    endloop
  endfacet
  facet normal 0.0319832 0.793651 -0.607532
    outer loop
      vertex 51.8047 90 4.71068
      vertex 51.2032 89.9586 4.625
      vertex 51.2083 90 4.67928
    endloop
  endfacet
  facet normal 0.0319843 0.793656 -0.607526
    outer loop
      vertex 52.5232 90 4.74851
      vertex 52.527 89.9053 4.625
      vertex 51.8047 90 4.71068
    endloop
  endfacet
  facet normal -0.0957437 0.788509 -0.607525
    outer loop
      vertex 53.3069 90 4.625
      vertex 52.527 89.9053 4.625
      vertex 52.5232 90 4.74851
    endloop
  endfacet
  facet normal 0.184889 0.905638 -0.381624
    outer loop
      vertex 50.7546 90 4.5058
      vertex 51.1942 89.8843 4.44411
      vertex 50.6273 90 4.44411
    endloop
  endfacet
  facet normal 0.18489 0.905639 -0.381621
    outer loop
      vertex 51.1942 89.8843 4.44411
      vertex 51.0007 90 4.625
      vertex 51.2032 89.9586 4.625
    endloop
  endfacet
  facet normal 0.184889 0.905638 -0.381621
    outer loop
      vertex 51.0007 90 4.625
      vertex 51.1942 89.8843 4.44411
      vertex 50.7546 90 4.5058
    endloop
  endfacet
  facet normal 0.0372153 0.923569 -0.381622
    outer loop
      vertex 51.2032 89.9586 4.625
      vertex 52.53 89.8304 4.44411
      vertex 51.1942 89.8843 4.44411
    endloop
  endfacet
  facet normal 0.0372189 0.923578 -0.381601
    outer loop
      vertex 52.527 89.9053 4.625
      vertex 52.53 89.8304 4.44411
      vertex 51.2032 89.9586 4.625
    endloop
  endfacet
  facet normal -0.111415 0.917588 -0.381601
    outer loop
      vertex 53.8571 89.9916 4.44411
      vertex 52.53 89.8304 4.44411
      vertex 52.527 89.9053 4.625
    endloop
  endfacet
  facet normal -0.111414 0.917585 -0.381608
    outer loop
      vertex 53.8571 89.9916 4.44411
      vertex 53.3069 90 4.625
      vertex 53.8554 90 4.46485
    endloop
  endfacet
  facet normal -0.111416 0.917582 -0.381615
    outer loop
      vertex 53.3069 90 4.625
      vertex 53.8571 89.9916 4.44411
      vertex 52.527 89.9053 4.625
    endloop
  endfacet
  facet normal -0.257164 0.887833 -0.3816
    outer loop
      vertex 53.8862 90 4.44411
      vertex 53.8571 89.9916 4.44411
      vertex 53.8554 90 4.46485
    endloop
  endfacet
  facet normal 0.00556244 0.138036 0.990412
    outer loop
      vertex 52.5237 89.9873 7
      vertex 52.495 90 6.99839
      vertex 52.2082 90 7
    endloop
  endfacet
  facet normal 0 0.12572 0.992066
    outer loop
      vertex 52.5237 89.9873 7
      vertex 52.5316 90 6.99839
      vertex 52.495 90 6.99839
    endloop
  endfacet
  facet normal -0.016493 0.135834 0.990594
    outer loop
      vertex 52.6283 90 7
      vertex 52.5316 90 6.99839
      vertex 52.5237 89.9873 7
    endloop
  endfacet
  facet normal -0 0 1
    outer loop
      vertex 52.6283 90 7
      vertex 53.499 89.9007 7
      vertex 53.9125 90 7
    endloop
  endfacet
  facet normal 0 0 1
    outer loop
      vertex 52.1955 89.7981 7
      vertex 52.6283 90 7
      vertex 52.5237 89.9873 7
    endloop
  endfacet
  facet normal 0 0 1
    outer loop
      vertex 52.1955 89.7981 7
      vertex 52.5237 89.9873 7
      vertex 52.2082 90 7
    endloop
  endfacet
  facet normal 0 0 1
    outer loop
      vertex 52.6283 90 7
      vertex 52.1955 89.7981 7
      vertex 53.499 89.9007 7
    endloop
  endfacet
  facet normal 0 0 1
    outer loop
      vertex 52.2082 90 7
      vertex 50.892 89.9007 7
      vertex 52.1955 89.7981 7
    endloop
  endfacet
  facet normal 0 -0 1
    outer loop
      vertex 50.892 89.9007 7
      vertex 52.2082 90 7
      vertex 50.4785 90 7
    endloop
  endfacet
  facet normal -0.233446 0.97237 0
    outer loop
      vertex 53.9125 90 7
      vertex 53.499 89.9007 9
      vertex 53.9125 90 9
    endloop
  endfacet
  facet normal -0.233446 0.97237 0
    outer loop
      vertex 53.499 89.9007 9
      vertex 53.9125 90 7
      vertex 53.499 89.9007 7
    endloop
  endfacet
  facet normal -0.0784573 0.996917 0
    outer loop
      vertex 53.499 89.9007 7
      vertex 52.1955 89.7981 9
      vertex 53.499 89.9007 9
    endloop
  endfacet
  facet normal -0.0784573 0.996917 0
    outer loop
      vertex 52.1955 89.7981 9
      vertex 53.499 89.9007 7
      vertex 52.1955 89.7981 7
    endloop
  endfacet
  facet normal 0.0784573 0.996917 -0
    outer loop
      vertex 52.1955 89.7981 7
      vertex 50.892 89.9007 9
      vertex 52.1955 89.7981 9
    endloop
  endfacet
  facet normal 0.0784573 0.996917 0
    outer loop
      vertex 50.892 89.9007 9
      vertex 52.1955 89.7981 7
      vertex 50.892 89.9007 7
    endloop
  endfacet
  facet normal 0.233446 0.97237 -0
    outer loop
      vertex 50.892 89.9007 7
      vertex 50.4785 90 9
      vertex 50.892 89.9007 9
    endloop
  endfacet
  facet normal 0.233446 0.97237 0
    outer loop
      vertex 50.4785 90 9
      vertex 50.892 89.9007 7
      vertex 50.4785 90 7
    endloop
  endfacet
  facet normal -0 0 1
    outer loop
      vertex 53.9125 90 9
      vertex 58.8446 89.6202 9
      vertex 59.2665 90 9
    endloop
  endfacet
  facet normal 0 0 1
    outer loop
      vertex 58.8446 89.6202 9
      vertex 53.9125 90 9
      vertex 57.5955 88.7776 9
    endloop
  endfacet
  facet normal 0 0 1
    outer loop
      vertex 57.5955 88.7776 9
      vertex 53.9125 90 9
      vertex 56.2412 88.1171 9
    endloop
  endfacet
  facet normal 0 0 1
    outer loop
      vertex 56.2412 88.1171 9
      vertex 53.9125 90 9
      vertex 54.8083 87.6515 9
    endloop
  endfacet
  facet normal -0 0 1
    outer loop
      vertex 53.499 89.9007 9
      vertex 54.8083 87.6515 9
      vertex 53.9125 90 9
    endloop
  endfacet
  facet normal 0 0 1
    outer loop
      vertex 53.499 89.9007 9
      vertex 53.3244 87.3898 9
      vertex 54.8083 87.6515 9
    endloop
  endfacet
  facet normal -0 0 1
    outer loop
      vertex 52.1955 89.7981 9
      vertex 53.3244 87.3898 9
      vertex 53.499 89.9007 9
    endloop
  endfacet
  facet normal 0 0 1
    outer loop
      vertex 52.1955 89.7981 9
      vertex 51.8186 87.3373 9
      vertex 53.3244 87.3898 9
    endloop
  endfacet
  facet normal 0 0 1
    outer loop
      vertex 50.892 89.9007 9
      vertex 51.8186 87.3373 9
      vertex 52.1955 89.7981 9
    endloop
  endfacet
  facet normal 0 0 1
    outer loop
      vertex 50 87.5746 9
      vertex 50.892 89.9007 9
      vertex 50.4785 90 9
    endloop
  endfacet
  facet normal 0 0 1
    outer loop
      vertex 50.892 89.9007 9
      vertex 50.3201 87.4948 9
      vertex 51.8186 87.3373 9
    endloop
  endfacet
  facet normal 0 0 1
    outer loop
      vertex 50 87.5746 9
      vertex 50.4785 90 9
      vertex 50 90 9
    endloop
  endfacet
  facet normal 0 0 1
    outer loop
      vertex 50.892 89.9007 9
      vertex 50 87.5746 9
      vertex 50.3201 87.4948 9
    endloop
  endfacet
  facet normal 0 1 -0
    outer loop
      vertex 62.1643 72.1563 1.2
      vertex 50 72.1563 24.3
      vertex 62.1643 72.1563 24.3
    endloop
  endfacet
  facet normal 0 1 0
    outer loop
      vertex 50 72.1563 24.3
      vertex 62.1643 72.1563 1.2
      vertex 50 72.1563 1.2
    endloop
  endfacet
  facet normal -0.227806 0.973706 0
    outer loop
      vertex 62.8998 72.3284 1.2
      vertex 62.1643 72.1563 24.3
      vertex 62.8998 72.3284 24.3
    endloop
  endfacet
  facet normal -0.227806 0.973706 0
    outer loop
      vertex 62.1643 72.1563 24.3
      vertex 62.8998 72.3284 1.2
      vertex 62.1643 72.1563 1.2
    endloop
  endfacet
  facet normal -0.352038 0.935986 0
    outer loop
      vertex 63.7833 72.6607 1.2
      vertex 62.8998 72.3284 24.3
      vertex 63.7833 72.6607 24.3
    endloop
  endfacet
  facet normal -0.352038 0.935986 0
    outer loop
      vertex 62.8998 72.3284 24.3
      vertex 63.7833 72.6607 1.2
      vertex 62.8998 72.3284 1.2
    endloop
  endfacet
  facet normal -0.633481 0.773758 0
    outer loop
      vertex 64.7294 73.4353 1.2
      vertex 63.7833 72.6607 24.3
      vertex 64.7294 73.4353 24.3
    endloop
  endfacet
  facet normal -0.633481 0.773758 0
    outer loop
      vertex 63.7833 72.6607 24.3
      vertex 64.7294 73.4353 1.2
      vertex 63.7833 72.6607 1.2
    endloop
  endfacet
  facet normal -0.813475 0.581599 0
    outer loop
      vertex 64.7294 73.4353 1.2
      vertex 65.5208 74.5422 24.3
      vertex 65.5208 74.5422 1.2
    endloop
  endfacet
  facet normal -0.813475 0.581599 0
    outer loop
      vertex 65.5208 74.5422 24.3
      vertex 64.7294 73.4353 1.2
      vertex 64.7294 73.4353 24.3
    endloop
  endfacet
  facet normal -0.995157 0.0982996 0
    outer loop
      vertex 65.7679 75.5989 6.75
      vertex 65.8174 76.1003 24.3
      vertex 65.8174 76.1003 6.75
    endloop
  endfacet
  facet normal -0.995157 0.0982996 0
    outer loop
      vertex 65.8174 76.1003 24.3
      vertex 65.7679 75.5989 6.75
      vertex 65.7679 75.5989 24.3
    endloop
  endfacet
  facet normal -1 0 0
    outer loop
      vertex 65.8174 79.9312 6.75
      vertex 65.8174 76.1003 6.75
      vertex 65.8174 79.9312 8.6
    endloop
  endfacet
  facet normal -1 0 0
    outer loop
      vertex 65.8174 88.7312 6.75
      vertex 65.8174 90 1.2
      vertex 65.8174 88.7312 1.2
    endloop
  endfacet
  facet normal -1 0 0
    outer loop
      vertex 65.8174 90 1.2
      vertex 65.8174 88.7312 6.75
      vertex 65.8174 90 24.3
    endloop
  endfacet
  facet normal -1 0 0
    outer loop
      vertex 65.8174 84.1312 8.6
      vertex 65.8174 88.7312 6.75
      vertex 65.8174 84.1312 6.75
    endloop
  endfacet
  facet normal -1 0 0
    outer loop
      vertex 65.8174 88.7312 6.75
      vertex 65.8174 84.1312 8.6
      vertex 65.8174 90 24.3
    endloop
  endfacet
  facet normal -1 0 0
    outer loop
      vertex 65.8174 76.1003 24.3
      vertex 65.8174 84.1312 8.6
      vertex 65.8174 79.9312 8.6
    endloop
  endfacet
  facet normal -1 0 0
    outer loop
      vertex 65.8174 76.1003 24.3
      vertex 65.8174 79.9312 8.6
      vertex 65.8174 76.1003 6.75
    endloop
  endfacet
  facet normal -1 0 0
    outer loop
      vertex 65.8174 84.1312 8.6
      vertex 65.8174 76.1003 24.3
      vertex 65.8174 90 24.3
    endloop
  endfacet
  facet normal -0 0 1
    outer loop
      vertex 65.8174 76.1003 24.3
      vertex 67.2574 76.0293 24.3
      vertex 67.2574 90 24.3
    endloop
  endfacet
  facet normal 0 0 1
    outer loop
      vertex 65.7679 75.5989 24.3
      vertex 67.2574 76.0293 24.3
      vertex 65.8174 76.1003 24.3
    endloop
  endfacet
  facet normal 0 0 1
    outer loop
      vertex 65.8174 76.1003 24.3
      vertex 67.2574 90 24.3
      vertex 65.8174 90 24.3
    endloop
  endfacet
  facet normal 0 0 1
    outer loop
      vertex 67.2574 76.0293 24.3
      vertex 65.7679 75.5989 24.3
      vertex 67.1916 75.3632 24.3
    endloop
  endfacet
  facet normal 0 0 1
    outer loop
      vertex 65.5208 74.5422 24.3
      vertex 67.1916 75.3632 24.3
      vertex 65.7679 75.5989 24.3
    endloop
  endfacet
  facet normal 0 0 1
    outer loop
      vertex 67.1916 75.3632 24.3
      vertex 65.5208 74.5422 24.3
      vertex 66.8581 73.9367 24.3
    endloop
  endfacet
  facet normal 0 0 1
    outer loop
      vertex 66.8581 73.9367 24.3
      vertex 65.5208 74.5422 24.3
      vertex 65.7896 72.4422 24.3
    endloop
  endfacet
  facet normal -0 0 1
    outer loop
      vertex 64.7294 73.4353 24.3
      vertex 65.7896 72.4422 24.3
      vertex 65.5208 74.5422 24.3
    endloop
  endfacet
  facet normal -0 0 1
    outer loop
      vertex 63.7833 72.6607 24.3
      vertex 65.7896 72.4422 24.3
      vertex 64.7294 73.4353 24.3
    endloop
  endfacet
  facet normal 0 0 1
    outer loop
      vertex 65.7896 72.4422 24.3
      vertex 63.7833 72.6607 24.3
      vertex 64.5121 71.3963 24.3
    endloop
  endfacet
  facet normal 0 0 1
    outer loop
      vertex 63.7833 72.6607 24.3
      vertex 63.3191 70.9476 24.3
      vertex 64.5121 71.3963 24.3
    endloop
  endfacet
  facet normal -0 0 1
    outer loop
      vertex 62.8998 72.3284 24.3
      vertex 63.3191 70.9476 24.3
      vertex 63.7833 72.6607 24.3
    endloop
  endfacet
  facet normal -0 0 1
    outer loop
      vertex 62.1643 72.1563 24.3
      vertex 63.3191 70.9476 24.3
      vertex 62.8998 72.3284 24.3
    endloop
  endfacet
  facet normal 0 0 1
    outer loop
      vertex 63.3191 70.9476 24.3
      vertex 62.1643 72.1563 24.3
      vertex 62.3305 70.7163 24.3
    endloop
  endfacet
  facet normal 0 0 1
    outer loop
      vertex 50 70.7163 24.3
      vertex 62.1643 72.1563 24.3
      vertex 50 72.1563 24.3
    endloop
  endfacet
  facet normal 0 0 1
    outer loop
      vertex 62.1643 72.1563 24.3
      vertex 50 70.7163 24.3
      vertex 62.3305 70.7163 24.3
    endloop
  endfacet
  facet normal 1 0 0
    outer loop
      vertex 67.2574 90 24.3
      vertex 67.2574 84.1312 8.6
      vertex 67.2574 90 0
    endloop
  endfacet
  facet normal 1 -0 0
    outer loop
      vertex 67.2574 76.0293 24.3
      vertex 67.2574 84.1312 8.6
      vertex 67.2574 90 24.3
    endloop
  endfacet
  facet normal 1 0 0
    outer loop
      vertex 67.2574 76.0293 0
      vertex 67.2574 79.9312 8.6
      vertex 67.2574 76.0293 24.3
    endloop
  endfacet
  facet normal 1 0 0
    outer loop
      vertex 67.2574 84.1312 8.6
      vertex 67.2574 76.0293 24.3
      vertex 67.2574 79.9312 8.6
    endloop
  endfacet
  facet normal 1 -0 0
    outer loop
      vertex 67.2574 84.1312 5.4
      vertex 67.2574 90 0
      vertex 67.2574 84.1312 8.6
    endloop
  endfacet
  facet normal 1 0 0
    outer loop
      vertex 67.2574 76.0293 0
      vertex 67.2574 84.1312 5.4
      vertex 67.2574 79.9312 5.4
    endloop
  endfacet
  facet normal 1 0 0
    outer loop
      vertex 67.2574 84.1312 5.4
      vertex 67.2574 76.0293 0
      vertex 67.2574 90 0
    endloop
  endfacet
  facet normal 1 0 0
    outer loop
      vertex 67.2574 79.9312 8.6
      vertex 67.2574 76.0293 0
      vertex 67.2574 79.9312 5.4
    endloop
  endfacet
  facet normal 0.995156 -0.0983108 0
    outer loop
      vertex 67.1916 75.3632 24.3
      vertex 67.2574 76.0293 0
      vertex 67.2574 76.0293 24.3
    endloop
  endfacet
  facet normal 0.995156 -0.0983108 0
    outer loop
      vertex 67.2574 76.0293 0
      vertex 67.1916 75.3632 24.3
      vertex 67.1916 75.3632 0
    endloop
  endfacet
  facet normal 0.973743 -0.227648 0
    outer loop
      vertex 66.8581 73.9367 24.3
      vertex 67.1916 75.3632 0
      vertex 67.1916 75.3632 24.3
    endloop
  endfacet
  facet normal 0.973743 -0.227648 0
    outer loop
      vertex 67.1916 75.3632 0
      vertex 66.8581 73.9367 24.3
      vertex 66.8581 73.9367 0
    endloop
  endfacet
  facet normal 0.813475 -0.5816 0
    outer loop
      vertex 65.7896 72.4422 24.3
      vertex 66.8581 73.9367 0
      vertex 66.8581 73.9367 24.3
    endloop
  endfacet
  facet normal 0.813475 -0.5816 0
    outer loop
      vertex 66.8581 73.9367 0
      vertex 65.7896 72.4422 24.3
      vertex 65.7896 72.4422 0
    endloop
  endfacet
  facet normal 0.633482 -0.773757 0
    outer loop
      vertex 64.5121 71.3963 0
      vertex 65.7896 72.4422 24.3
      vertex 64.5121 71.3963 24.3
    endloop
  endfacet
  facet normal 0.633482 -0.773757 0
    outer loop
      vertex 65.7896 72.4422 24.3
      vertex 64.5121 71.3963 0
      vertex 65.7896 72.4422 0
    endloop
  endfacet
  facet normal 0.352034 -0.935987 0
    outer loop
      vertex 63.3191 70.9476 0
      vertex 64.5121 71.3963 24.3
      vertex 63.3191 70.9476 24.3
    endloop
  endfacet
  facet normal 0.352034 -0.935987 0
    outer loop
      vertex 64.5121 71.3963 24.3
      vertex 63.3191 70.9476 0
      vertex 64.5121 71.3963 0
    endloop
  endfacet
  facet normal 0.227816 -0.973704 0
    outer loop
      vertex 62.3305 70.7163 0
      vertex 63.3191 70.9476 24.3
      vertex 62.3305 70.7163 24.3
    endloop
  endfacet
  facet normal 0.227816 -0.973704 0
    outer loop
      vertex 63.3191 70.9476 24.3
      vertex 62.3305 70.7163 0
      vertex 63.3191 70.9476 0
    endloop
  endfacet
  facet normal 0 -1 0
    outer loop
      vertex 50 70.7163 0
      vertex 62.3305 70.7163 24.3
      vertex 50 70.7163 24.3
    endloop
  endfacet
  facet normal 0 -1 -0
    outer loop
      vertex 62.3305 70.7163 24.3
      vertex 50 70.7163 0
      vertex 62.3305 70.7163 0
    endloop
  endfacet
  facet normal 0 0 -1
    outer loop
      vertex 63.3191 70.9476 0
      vertex 67.2574 76.0293 0
      vertex 67.1916 75.3632 0
    endloop
  endfacet
  facet normal 0 0 -1
    outer loop
      vertex 65.7896 72.4422 0
      vertex 67.1916 75.3632 0
      vertex 66.8581 73.9367 0
    endloop
  endfacet
  facet normal 0 0 -1
    outer loop
      vertex 67.1916 75.3632 0
      vertex 65.7896 72.4422 0
      vertex 63.3191 70.9476 0
    endloop
  endfacet
  facet normal 0 0 -1
    outer loop
      vertex 63.3191 70.9476 0
      vertex 65.7896 72.4422 0
      vertex 64.5121 71.3963 0
    endloop
  endfacet
  facet normal 0 0 -1
    outer loop
      vertex 67.2574 76.0293 0
      vertex 63.3191 70.9476 0
      vertex 62.3305 70.7163 0
    endloop
  endfacet
  facet normal -0 0 -1
    outer loop
      vertex 67.2574 76.0293 0
      vertex 62.3305 70.7163 0
      vertex 53.9125 90 0
    endloop
  endfacet
  facet normal 0 0 -1
    outer loop
      vertex 67.2574 76.0293 0
      vertex 53.9125 90 0
      vertex 67.2574 90 0
    endloop
  endfacet
  facet normal 0 0 -1
    outer loop
      vertex 62.3305 70.7163 0
      vertex 53.499 89.9007 0
      vertex 53.9125 90 0
    endloop
  endfacet
  facet normal 0 0 -1
    outer loop
      vertex 50 70.7163 0
      vertex 53.499 89.9007 0
      vertex 62.3305 70.7163 0
    endloop
  endfacet
  facet normal 0 0 -1
    outer loop
      vertex 53.499 89.9007 0
      vertex 50 70.7163 0
      vertex 52.1955 89.7981 0
    endloop
  endfacet
  facet normal -0 0 -1
    outer loop
      vertex 52.1955 89.7981 0
      vertex 50 70.7163 0
      vertex 50.892 89.9007 0
    endloop
  endfacet
  facet normal 0 0 -1
    outer loop
      vertex 50 90 0
      vertex 50.892 89.9007 0
      vertex 50 70.7163 0
    endloop
  endfacet
  facet normal 0 0 -1
    outer loop
      vertex 50.892 89.9007 0
      vertex 50 90 0
      vertex 50.4785 90 0
    endloop
  endfacet
  facet normal -1 0 0
    outer loop
      vertex 50 90 0
      vertex 50 87.5746 1.2
      vertex 50 90 9
    endloop
  endfacet
  facet normal -1 0 0
    outer loop
      vertex 50 70.7163 0
      vertex 50 87.5746 1.2
      vertex 50 90 0
    endloop
  endfacet
  facet normal -1 -0 0
    outer loop
      vertex 50 87.5746 1.2
      vertex 50 70.7163 0
      vertex 50 72.1563 1.2
    endloop
  endfacet
  facet normal -1 0 0
    outer loop
      vertex 50 70.7163 24.3
      vertex 50 72.1563 1.2
      vertex 50 70.7163 0
    endloop
  endfacet
  facet normal -1 0 0
    outer loop
      vertex 50 72.1563 1.2
      vertex 50 70.7163 24.3
      vertex 50 72.1563 24.3
    endloop
  endfacet
  facet normal -1 -0 0
    outer loop
      vertex 50 90 9
      vertex 50 87.5746 1.2
      vertex 50 87.5746 9
    endloop
  endfacet
  facet normal 0 1 0
    outer loop
      vertex 67.2574 90 24.3
      vertex 65.8174 90 1.2
      vertex 65.8174 90 24.3
    endloop
  endfacet
  facet normal 0 1 0
    outer loop
      vertex 65.8174 90 1.2
      vertex 67.2574 90 0
      vertex 59.2665 90 1.2
    endloop
  endfacet
  facet normal 0 1 -0
    outer loop
      vertex 67.2574 90 0
      vertex 65.8174 90 1.2
      vertex 67.2574 90 24.3
    endloop
  endfacet
  facet normal 0 1 0
    outer loop
      vertex 52.5232 90 4.74851
      vertex 52.2082 90 7
      vertex 52.495 90 6.99839
    endloop
  endfacet
  facet normal 0 1 -0
    outer loop
      vertex 50.4785 90 7
      vertex 50 90 9
      vertex 50.4785 90 9
    endloop
  endfacet
  facet normal 0 1 0
    outer loop
      vertex 52.2082 90 7
      vertex 52.5232 90 4.74851
      vertex 51.8047 90 4.71068
    endloop
  endfacet
  facet normal 0 1 0
    outer loop
      vertex 51.2083 90 4.67928
      vertex 52.2082 90 7
      vertex 51.8047 90 4.71068
    endloop
  endfacet
  facet normal 0 1 0
    outer loop
      vertex 52.2082 90 7
      vertex 51.2083 90 4.67928
      vertex 50.4785 90 7
    endloop
  endfacet
  facet normal 0 1 -0
    outer loop
      vertex 51.0654 90 4.64193
      vertex 50.4785 90 7
      vertex 51.2083 90 4.67928
    endloop
  endfacet
  facet normal 0 1 -0
    outer loop
      vertex 51.0007 90 4.625
      vertex 50.4785 90 7
      vertex 51.0654 90 4.64193
    endloop
  endfacet
  facet normal 0 1 -0
    outer loop
      vertex 50.7546 90 4.5058
      vertex 50.4785 90 7
      vertex 51.0007 90 4.625
    endloop
  endfacet
  facet normal 0 1 -0
    outer loop
      vertex 50.6273 90 4.44411
      vertex 50.4785 90 7
      vertex 50.7546 90 4.5058
    endloop
  endfacet
  facet normal 0 1 -0
    outer loop
      vertex 50.4934 90 4.32679
      vertex 50.4785 90 7
      vertex 50.6273 90 4.44411
    endloop
  endfacet
  facet normal 0 1 0
    outer loop
      vertex 50.4785 90 4.25
      vertex 50.4785 90 7
      vertex 50.4934 90 4.32679
    endloop
  endfacet
  facet normal 0 1 0
    outer loop
      vertex 50.4785 90 7
      vertex 50.4785 90 4.25
      vertex 50 90 9
    endloop
  endfacet
  facet normal 0 1 0
    outer loop
      vertex 50 90 0
      vertex 50.4785 90 4.25
      vertex 50.4785 90 0
    endloop
  endfacet
  facet normal 0 1 0
    outer loop
      vertex 50.4785 90 4.25
      vertex 50 90 0
      vertex 50 90 9
    endloop
  endfacet
  facet normal 0 1 0
    outer loop
      vertex 59.2665 90 9
      vertex 53.9125 90 7
      vertex 53.9125 90 9
    endloop
  endfacet
  facet normal 0 1 -0
    outer loop
      vertex 53.3069 90 4.625
      vertex 52.6283 90 7
      vertex 53.9125 90 7
    endloop
  endfacet
  facet normal 0 1 0
    outer loop
      vertex 52.5316 90 6.99839
      vertex 52.5232 90 4.74851
      vertex 52.495 90 6.99839
    endloop
  endfacet
  facet normal -0 1 0
    outer loop
      vertex 52.5232 90 4.74851
      vertex 52.6283 90 7
      vertex 53.3069 90 4.625
    endloop
  endfacet
  facet normal 0 1 0
    outer loop
      vertex 53.893 90 4.43649
      vertex 53.9125 90 7
      vertex 59.2665 90 9
    endloop
  endfacet
  facet normal 0 1 0
    outer loop
      vertex 52.6283 90 7
      vertex 52.5232 90 4.74851
      vertex 52.5316 90 6.99839
    endloop
  endfacet
  facet normal 0 1 0
    outer loop
      vertex 53.9125 90 7
      vertex 53.8554 90 4.46485
      vertex 53.3069 90 4.625
    endloop
  endfacet
  facet normal 0 1 0
    outer loop
      vertex 53.9125 90 7
      vertex 53.8862 90 4.44411
      vertex 53.8554 90 4.46485
    endloop
  endfacet
  facet normal 0 1 0
    outer loop
      vertex 53.9125 90 7
      vertex 53.893 90 4.43649
      vertex 53.8862 90 4.44411
    endloop
  endfacet
  facet normal 0 1 -0
    outer loop
      vertex 59.2665 90 1.2
      vertex 53.893 90 4.43649
      vertex 59.2665 90 9
    endloop
  endfacet
  facet normal 0 1 0
    outer loop
      vertex 53.893 90 4.43649
      vertex 59.2665 90 1.2
      vertex 53.9125 90 4.25
    endloop
  endfacet
  facet normal 0 1 0
    outer loop
      vertex 59.2665 90 1.2
      vertex 53.9125 90 0
      vertex 53.9125 90 4.25
    endloop
  endfacet
  facet normal 0 1 0
    outer loop
      vertex 53.9125 90 0
      vertex 59.2665 90 1.2
      vertex 67.2574 90 0
    endloop
  endfacet
endsolid OpenSCAD_Model
